<svg xmlns="http://www.w3.org/2000/svg" xmlns:xlink="http://www.w3.org/1999/xlink" id="Capa_2" data-name="Capa 2" viewBox="218.56 476.48 1646.36 1046.13"><defs><style>.deliveryvan-cls-1,.deliveryvan-cls-3{fill:none;}.deliveryvan-cls-2{fill:#e7ead6;stroke:#e7ead6;}.deliveryvan-cls-10,.deliveryvan-cls-11,.deliveryvan-cls-2,.deliveryvan-cls-3,.deliveryvan-cls-4,.deliveryvan-cls-5,.deliveryvan-cls-6,.deliveryvan-cls-7,.deliveryvan-cls-9{stroke-linecap:round;stroke-linejoin:round;stroke-width:6px;}.deliveryvan-cls-3,.deliveryvan-cls-5,.deliveryvan-cls-6,.deliveryvan-cls-7,.deliveryvan-cls-9{stroke:#313232;}.deliveryvan-cls-4{fill:#6b7d1f;stroke:#6b7d1f;}.deliveryvan-cls-5{fill:#fff;}.deliveryvan-cls-6,.deliveryvan-cls-8{fill:#313232;}.deliveryvan-cls-7{fill:#d3a798;}.deliveryvan-cls-9{fill:#f7b83e;}.deliveryvan-cls-10{fill:#e1edf5;stroke:#e1edf5;}.deliveryvan-cls-11{fill:#f65b0f;stroke:#f65b0f;}.deliveryvan-cls-12{clip-path:url(#clip-path);}.deliveryvan-cls-13{clip-path:url(#clip-path-2);}.deliveryvan-cls-14{clip-path:url(#clip-path-3);}</style><clipPath id="clip-path"><path class="deliveryvan-cls-1" d="M504.65,1185.52a993.06,993.06,0,0,0-52.11-171.17,3,3,0,0,0-2.87-1.87c-24.08.8-47.11,2.42-68.46,4.79a3,3,0,0,0-2.18,1.33,3,3,0,0,0-.36,2.52l51.49,170.36a3,3,0,0,0,2.87,2.13h.11c21.95-.75,44.05-2.51,65.42-4.21l3.39-.27a3,3,0,0,0,2.16-1.2A3,3,0,0,0,504.65,1185.52Z"/></clipPath><clipPath id="clip-path-2"><path class="deliveryvan-cls-1" d="M1864.72,1332c-16.72-47-32.73-96.46-43.92-135.72-15.59-54.75-39.52-98.62-73.16-134.13-23.72-25.05-57.21-43.74-102.4-57.14-20.42-6.06-41.53-10.65-61.94-15.1-17.11-3.72-34.8-7.57-51.94-12.25-39.24-10.73-81.41-28.9-121.93-52.55a3,3,0,0,0-4.5,2.72L869.1,951.38a3,3,0,0,0-3.12-2.86l-499,20.9a3,3,0,0,0-2.74,3.87l109,360.59a3,3,0,0,0,2.87,2.13H1861.9a3,3,0,0,0,2.82-4Z"/></clipPath><clipPath id="clip-path-3"><path class="deliveryvan-cls-1" d="M1816.76,1182.92c-10.88-34-25-63-43.09-88.87a3,3,0,0,0-2.21-1.27c-29.68-2.43-58.2-3-88.39-3.68q-11.86-.24-23.92-.54a3,3,0,0,0-2.64,1.45,3,3,0,0,0-.06,3c15.29,27.47,32.28,48.66,51.94,64.79,23.06,18.91,50.21,30.3,76.47,32.07q3.11.21,6.18.21a81.33,81.33,0,0,0,23.74-3.39,3,3,0,0,0,2-3.78Z"/></clipPath></defs><path class="deliveryvan-cls-2" d="M821.81,863.07c1.1-55-2-110.38-14.21-164S775,595.2,741.53,551.54a325.21,325.21,0,0,0,11,133.42A386.21,386.21,0,0,0,641,513.72c7,16.39,6,34.93,7.11,52.74,1.92,31.52,10.41,62.75,25.61,90.43a188.5,188.5,0,0,0-67.25-51.44C625.72,646.69,645,688,660.91,730.6,680.08,782,694.84,836.07,726.7,880.67,758.26,880.66,791.56,872.09,821.81,863.07Z"/><path class="deliveryvan-cls-3" d="M666.64,646.53c44.66,57,52.87,135.32,93.92,194.94"/><path class="deliveryvan-cls-3" d="M745.94,666.43C765.55,709,758.81,760,778.05,802.69"/><path class="deliveryvan-cls-3" d="M793.76,736.62q3.3,49.61,3.25,99.35"/><path class="deliveryvan-cls-3" d="M683.73,602.05q22.46,46.53,42.16,94.32"/><path class="deliveryvan-cls-4" d="M357.23,581.44c19,4.75,38.25,9.8,54.86,20.14s30.44,26.93,32.66,46.37a31.49,31.49,0,0,1-.7,12.12c-2.68,9.39-11.44,16.28-21,18.41s-19.62,0-28.48-4.06-16.69-10.11-24.36-16.15q-23.76-18.72-46.56-38.61c-7.26-6.33-16-10.45-23.81-16.1s-15.32-12-20.36-20.22-7.29-18.56-4.06-27.64c2.84-8,9.62-14.13,17.26-17.83s16.13-5.23,24.55-6.33a271.7,271.7,0,0,1,86.81,2.75c21.65,4.23,44,11.9,58,28.91,3.68,4.45,6.74,9.56,7.86,15.22s.1,11.92-3.6,16.34c-4.78,5.72-12.86,7.36-20.3,7.6C415.26,603.38,387.06,589.18,357.23,581.44Z"/><path class="deliveryvan-cls-4" d="M531,602.36c-.84,3.74-.88,7.6-1.46,11.38-1,6.55-3.77,13-8.57,17.56s-11.78,7.08-18.26,5.67a21.91,21.91,0,0,1-12.55-8.61,41.39,41.39,0,0,1-6.35-14.09c-4.05-15-3.39-31,.42-46s10.65-29.13,18.81-42.31a219.63,219.63,0,0,1,26.14-34.25c5.06-5.41,10.53-9.65,17.73-11.39a29.64,29.64,0,0,1,21.5,2.93c6.21,3.57,10.82,9.4,14.4,15.6,12.63,21.86,13.73,48.41,12.52,73.64a233.15,233.15,0,0,1-3.88,35c-2.24,11.13-6,22.42-13.82,30.6s-20.77,12.36-31,7.35c-7-3.45-11.66-10.65-13.84-18.18S531.06,610.21,531,602.36Z"/><path class="deliveryvan-cls-4" d="M595.13,677.9c-6.49.09-13,.19-19.38,1.65-9.85,2.26-18,8-20.06,18.34-1.15,5.74-.37,11.72,1.16,17.37,3.78,13.9,13.76,23.59,27.06,28.83,20.74,8.18,44.21,6.11,65.72,11.3,12.31,3,38.8,13.37,46.5-2.69,2.21-4.63,2.2-10,1.45-15.09-5.44-36.54-40.23-79-74-93.59-5.7-2.46-11.87-4.22-18.07-3.81s-12.45,3.25-15.9,8.41C584.18,656.73,589.91,669.67,595.13,677.9Z"/><path class="deliveryvan-cls-3" d="M544.71,537.49a300.52,300.52,0,0,0,56.06,295.82"/><path class="deliveryvan-cls-3" d="M530,669c7-5.9,16.91-7.45,26-6s17.47,5.42,25.59,9.67a398.43,398.43,0,0,1,86.38,61.22"/><path class="deliveryvan-cls-3" d="M319.78,574.9c51.22.61,103.13,25.36,144.6,53.89a230.42,230.42,0,0,1,72.67,82.26"/><path class="deliveryvan-cls-5" d="M504.11,857.89,677.94,808s40.8,120.66,38.73,191.92l-127,35.52S536.7,978.73,504.11,857.89Z"/><path class="deliveryvan-cls-5" d="M738.49,993.84a297.88,297.88,0,0,1-63.89-124c62.79-17.28,127-29.91,192.07-33.43,3.44,48.25,2.09,95.19-6.4,142.81Z"/><path class="deliveryvan-cls-5" d="M1326.56,868.17c-48.27-48.29-80.12-112.2-136.27-152.72-63.59-45.9-147-51.88-225.39-52.28q-91.47-.48-182.79,6.15C808,757.3,838.52,863.51,865.94,951l542-23.28C1379.36,910.91,1350.06,891.67,1326.56,868.17Z"/><path class="deliveryvan-cls-6" d="M1246.42,858.36h0A14.6,14.6,0,0,1,1261,873v88.77a0,0,0,0,1,0,0h-29.21a0,0,0,0,1,0,0V873A14.6,14.6,0,0,1,1246.42,858.36Z" transform="translate(93.98 -116.42) rotate(5.56)"/><path class="deliveryvan-cls-7" d="M1066.72,732.09a67,67,0,0,0,36.22,7.46c-9.36,5.23-19.7,11.5-29.06,16.72"/><path class="deliveryvan-cls-7" d="M1022.72,834.5a57.19,57.19,0,0,1-12.8-8.09c-14-11.82-23.32-28-29.93-44.9-6.78-17.26-13-36.26-11.55-55.06,1-12.82,6.71-25.39,17.5-32.79,12.15-8.34,28.2-9.22,41.62-3.39,19.79,8.58,33.14,28.3,42.36,47,6.13,12.43,11.81,25.34,14.95,38.89,3.06,13.16,5.52,27.51.48,40.51C1075.29,842.65,1045.13,844.88,1022.72,834.5Z"/><path class="deliveryvan-cls-3" d="M1046.62,756.77a47.82,47.82,0,0,0,36.72,13.44"/><circle class="deliveryvan-cls-8" cx="1056.66" cy="741.45" r="3"/><path class="deliveryvan-cls-6" d="M1077.86,699.24a4.67,4.67,0,0,0-2.36-1.63,6.6,6.6,0,0,0-3,.21,126.62,126.62,0,0,0-20.36,7.28c-24.7,10.62-48.75,22.69-72.78,34.75a47,47,0,0,0-9.93,6.06c2,12.25,6.17,24.3,10.61,35.6a134.7,134.7,0,0,0,14.06,27.12c4.36-.71,7.38-5,8.59-9.23a22.85,22.85,0,0,0,.17-11.81c-.81-3.16-2.3-6.22-2.23-9.48a20.36,20.36,0,0,1,1.61-6.48c1.54-4.16,3.34-8.64,7.19-10.84a38.31,38.31,0,0,1,5.59-2.12,19.22,19.22,0,0,0,11.32-24.44,20.55,20.55,0,0,0,24.49-21.58,29.12,29.12,0,0,0,14,2.86c4.33-.13,8.87-1.33,11.89-4.44S1080.62,702.58,1077.86,699.24Z"/><path class="deliveryvan-cls-7" d="M1017.84,758.58a28.81,28.81,0,0,0-9.26-8.33c-3.73-1.91-8.32-2.48-12.12-.71a13,13,0,0,0-6.78,8.61,19.86,19.86,0,0,0,.67,11.16c1.77,5.31,5.39,10.15,10.44,12.56s11.55,2,15.75-1.69"/><path class="deliveryvan-cls-3" d="M999.69,760.74q5.38,3.81,10.5,8"/><path class="deliveryvan-cls-3" d="M969.3,744.7c31.48-19,65.69-33,99.74-46.92,5-2,15.91-7.13,20.94-9.18"/><path class="deliveryvan-cls-9" d="M1027.56,690.27c-13.42-5.83-29.47-4.95-41.62,3.39-10.79,7.4-16.47,20-17.5,32.79a80.65,80.65,0,0,0,.74,18.16l.12.09c25.35-15.3,52.47-27.36,79.84-38.74A65.7,65.7,0,0,0,1027.56,690.27Z"/><path class="deliveryvan-cls-5" d="M887,969.27c13.79-44.5,44.13-85,85.37-113.95,14-9.84,29.58-18.5,47-22.46s37-2.74,52,5.95c13.12,7.61,21.58,20.18,26.11,33.32s5.51,27,6.47,40.64l3.84,54.82"/><path class="deliveryvan-cls-7" d="M1118.19,958.62c6.15-36.43,14.65-73.33,34.33-104.59,10.64-16.91,25.6-32.55,45-37.22,22.68-5.46,47.35,6,61.24,24.73,3.3,4.46,6.14,9.39,7.28,14.81s.44,11.42-2.81,15.91a28.8,28.8,0,0,1,5.11,15.69c.16,3.21-.24,6.58-2,9.26-2.94,4.46-9,5.94-14.28,4.94s-9.86-4-14.32-6.93l-14.7-9.66c-7.51,21.68-13.72,43.54-17,66.25"/><path class="deliveryvan-cls-3" d="M1219,847.3a67.15,67.15,0,0,1,45.67,27.15"/><path class="deliveryvan-cls-4" d="M441.72,874.84a278.71,278.71,0,0,1-89.88,34.56c-23.17,4.53-47.43,6-70.17-.28-3.63-1-7.37-2.32-10-5-2.76-2.92-3.83-7.09-3.94-11.11-.35-13.35,8.56-25,17.71-34.76,13.43-14.3,28.54-27.26,45.88-36.42S368.43,807.37,388,808.9c18.21,1.42,35.62,8.63,51,18.52,5.26,3.39,10.39,7.17,14.13,12.18,3.47,4.64,7.58,13.47,5.56,19.4C456.25,866.09,447.75,871.21,441.72,874.84Z"/><path class="deliveryvan-cls-4" d="M461.13,836.81c-6.53-16.32-11.64-33.31-13.69-50.77s-1-35.42,4.56-52.11a69.49,69.49,0,0,1,7.7-16.44,59,59,0,0,1,22.69-19.89,66.33,66.33,0,0,1,33.7-7c4.32,26.85,6.34,56-2.94,81.6C503.79,798,482.35,819.36,461.13,836.81Z"/><path class="deliveryvan-cls-4" d="M418.87,813.63C410,797.57,394.46,786,377.68,778.57s-34.92-11.14-52.9-14.8l-54.12-11c-13-2.64-27.26-5.11-38.83,1.33a14,14,0,0,0-5.94,5.59,14.35,14.35,0,0,0-1.15,7.43c.74,11.42,7.77,21.75,16.85,28.71s20.07,11,31.07,14.12a251,251,0,0,0,93.89,8.39,394.63,394.63,0,0,1,41.65-2.49C411.38,815.83,415.78,814.4,418.87,813.63Z"/><path class="deliveryvan-cls-4" d="M315.73,741.83c-14-19.77-26.72-42.46-25.31-66.67.24-4.21,1.13-8.78,4.36-11.49,5.27-4.39,13.21-1.44,19.19,1.91,58.13,32.48,101.72,88.82,121.94,152.26,4.28,13.44-11.13,7.39-18.16,5.25a155.07,155.07,0,0,1-27.69-11.31c-19.5-10.35-36.5-24.93-51.32-41.19A312,312,0,0,1,315.73,741.83Z"/><path class="deliveryvan-cls-4" d="M589.29,772.91c1.46-1.88-1.27-4.17-3.54-4.86-13.49-4.1-28.22-3-41.61,1.4s-25.56,12-36.67,20.64c-12.63,9.88-24.27,21.58-31.26,36s-8.81,31.95-2.06,46.49c28.89-1.07,56.18-14.89,73-38.42,9.83-13.77,16-30.11,27.12-42.82C578.64,786.36,585.21,778.15,589.29,772.91Z"/><path class="deliveryvan-cls-10" d="M472.4,1079.1c-25.48-41.72-61.5-113.8-83.5-157.45a696,696,0,0,1,200.58-38,1251,1251,0,0,1,7.37,180.81Z"/><path class="deliveryvan-cls-3" d="M481.77,895.81c-6.79-23.71-18.75-46.31-36-64.1s-40.28-25.44-63.94-30.59a506.25,506.25,0,0,0-82.14-10.92"/><path class="deliveryvan-cls-3" d="M473.82,873.86a169.83,169.83,0,0,1,49.83-79.52"/><path class="deliveryvan-cls-3" d="M460.46,849.77c-2.22-44.37,2.06-89.58,20.59-130"/><path class="deliveryvan-cls-3" d="M469.11,834.81a90.27,90.27,0,0,1,42.06-56.46"/><path class="deliveryvan-cls-3" d="M325.79,760.86c19.21,4.57,38.51,9.16,56.88,16.42,13.23,5.23,26,11.89,37.29,20.59,5.13,4,10.44,7.14,14.54,12.32a42,42,0,0,1,8.17,17.34"/><path class="deliveryvan-cls-3" d="M304.52,836.19c12.78-9.53,26.38-18.14,41.18-24.06s33.06-9.47,48.93-7.92"/><path class="deliveryvan-cls-3" d="M316.6,869.68q22.63-11.22,46.19-20.4c27.32-10.65,56.69-19.29,85.65-14.69"/><path class="deliveryvan-cls-3" d="M317.81,686.5a433.71,433.71,0,0,1,47.29,49.12c8.2,10,16,20.35,23.71,30.7l15.2,20.3"/><path class="deliveryvan-cls-2" d="M1407.92,927.71c37.6,21.94,80.61,41.36,122.65,52.85,37.65,10.29,76.4,16.23,113.81,27.33s74.25,28,101.09,56.33c35.86,37.87,58.15,82.72,72.45,132.89,12.24,43,29,93.79,44,135.9H476.08l-109-360.59,499-20.91"/><line class="deliveryvan-cls-3" x1="1022.66" y1="985.44" x2="924.75" y2="990.03"/><ellipse class="deliveryvan-cls-6" cx="767.9" cy="1354.1" rx="67.15" ry="151.73" transform="translate(-421.48 349.8) rotate(-20.27)"/><ellipse class="deliveryvan-cls-6" cx="1471.13" cy="1354.1" rx="67.15" ry="151.73" transform="translate(-377.95 593.38) rotate(-20.27)"/><path class="deliveryvan-cls-11" d="M433,1190.61c23.07-.79,46.7-2.73,68.68-4.48a988.15,988.15,0,0,0-51.94-170.65c-22.45.75-45.67,2.26-68.23,4.77Z"/><path class="deliveryvan-cls-11" d="M1785.06,1186.89a80.77,80.77,0,0,0,28.84-3.06c-10.18-31.78-23.91-61.28-42.68-88.06-37.49-3.07-73.9-3.23-112.14-4.21,13.35,24,30,46.51,51.22,63.93S1757.65,1185,1785.06,1186.89Z"/><line class="deliveryvan-cls-3" x1="1565.97" y1="1500.44" x2="368.67" y2="1500.44"/><path class="deliveryvan-cls-3" d="M221.56,1131.08q54.76,3.43,109.69,2.08"/><path class="deliveryvan-cls-3" d="M229.7,1057.91a864.79,864.79,0,0,0,118.82,35.62"/><g class="deliveryvan-cls-12"><path class="deliveryvan-cls-3" d="M408.37,1129.81l96.85-5.92"/><path class="deliveryvan-cls-3" d="M380.67,1075.81c43.34-3.71,85.68-7.21,116-11.13"/></g><g class="deliveryvan-cls-13"><line class="deliveryvan-cls-3" x1="979.71" y1="1348.12" x2="866.11" y2="951.51"/><path class="deliveryvan-cls-3" d="M1356.69,1352.08c-11.78-34.36-18.58-70.2-14.55-106.52,3.22-29,15.11-58.2,37.89-76.45,23.69-19,58-23.65,85.89-11.69,31.15,13.35,51.62,42.24,68.86,70.13a907.42,907.42,0,0,1,55.2,103.79q3.87,8.58,7.57,17.24"/><path class="deliveryvan-cls-3" d="M643.59,1341.92c-4.25-33.4.34-78.63,13.15-109.77,10.35-25.15,28.93-48.84,55-56.5,19.71-5.78,41.4-1.58,59.57,8s33.23,24.16,46.65,39.71c37.47,43.42,64.44,94.26,90,145.29"/><path class="deliveryvan-cls-3" d="M526.38,1342.48a975,975,0,0,0-29.95-100.86c-17.27,2.09-36,3.72-54.5,5.12"/><path class="deliveryvan-cls-3" d="M1834.41,1223.71c-41.17-1.76-81.59-4.31-123.47-7.76A366.41,366.41,0,0,1,1771.79,1342"/></g><g class="deliveryvan-cls-14"><path class="deliveryvan-cls-3" d="M1643.59,1122.58a699.4,699.4,0,0,0,191.86,3.52"/></g><path class="deliveryvan-cls-6" d="M1161.35,717.11h3a9.67,9.67,0,0,1,9.67,9.67v19.57a9.67,9.67,0,0,1-9.67,9.67h-3a0,0,0,0,1,0,0V717.11a0,0,0,0,1,0,0Z" transform="translate(-204.44 583.98) rotate(-25.9)"/><path class="deliveryvan-cls-3" d="M1173.87,734.12a69.37,69.37,0,0,0,12.68-20"/><path class="deliveryvan-cls-3" d="M1326.56,868.17c-48.27-48.29-80.12-112.2-136.27-152.72-63.59-45.9-147-51.88-225.39-52.28q-91.47-.48-182.79,6.15C808,757.3,838.52,863.51,865.94,951l542-23.28C1379.36,910.91,1350.06,891.67,1326.56,868.17Z"/><path class="deliveryvan-cls-3" d="M959.19,1129.28c-7.73-26.07-17.56-52.18-25-78.32,7.77-.74,16.18-1.42,24-1.37a48.68,48.68,0,0,1,8.19.57c8,1.43,15,6.84,17.15,13.69s-1,14.83-7.74,18.81a31.13,31.13,0,0,1-8.79,3.22,72.51,72.51,0,0,1-19.89,1.8"/><path class="deliveryvan-cls-3" d="M1128.78,1052c8.56,26.39,16.41,45.93,25.55,72.36"/><path class="deliveryvan-cls-3" d="M1327.34,1041.56c7.39,26.14,17.23,58.65,25,84.72"/><path class="deliveryvan-cls-3" d="M1273.32,1048c7.39,26.14,17.23,52.25,25,78.32"/><path class="deliveryvan-cls-3" d="M1237.62,1055.56a28.66,28.66,0,0,0-17.43-10.66c-7.14-1.22-15.16.86-19.61,5.89-3.53,4-4.52,9.26-4.62,14.3-.22,11.41,3.49,22.62,8.38,33.2,3.29,7.14,7.26,14.24,13.59,19.61s15.43,8.76,24.07,7.16,15.85-9.21,14.19-16.77"/><path class="deliveryvan-cls-3" d="M1287,1086.22c15.36-.35,37.43-.69,52.79-1"/><line class="deliveryvan-cls-3" x1="1093.09" y1="1048.32" x2="1166.7" y2="1048.32"/><path class="deliveryvan-cls-3" d="M1032.8,1093.61h44.3"/><path class="deliveryvan-cls-3" d="M1032.68,1128.46c-4.62-23.6-9.21-48-2.75-71.25,1-3.49,3.06-7.59,7.18-7.88a10,10,0,0,1,5.7,1.8c6.42,3.88,11.08,9.55,15.4,15.22,14.91,19.55,27.32,40.45,39.69,61.31"/></svg>