<svg width="144" height="137" viewBox="0 0 144 137" fill="none" xmlns="http://www.w3.org/2000/svg">
<g clip-path="url(#clip0)">
<path d="M21.6391 128.557C16.2972 118.92 12.5531 107.812 13.0808 96.9495C13.4645 89.0419 15.8765 81.079 20.8661 74.9334C25.8557 68.7878 33.5865 64.6592 41.4984 64.9982C47.9117 65.2708 53.8763 68.3132 60.2044 69.3902C63.5208 69.9531 66.9069 69.9708 70.2291 69.4426C75.06 68.6738 79.7911 66.7497 84.6674 67.1404C88.8512 67.4759 92.7834 69.5426 95.8251 72.434C98.8668 75.3255 101.075 79.0039 102.723 82.8634" stroke="#313232" stroke-width="0.6" stroke-linecap="round" stroke-linejoin="round"/>
<path d="M84.3129 32.6274C83.5329 30.2105 81.7408 28.1403 79.4498 27.0451C78.4454 25.4201 77.2258 23.865 75.5777 22.8997C73.0371 21.411 69.7158 21.5662 67.1291 22.9731C64.5424 24.3801 62.6721 26.9088 61.7041 29.6891C61.3497 30.7081 61.1051 31.7789 61.14 32.8573C62.1535 33.5444 63.3067 33.8435 64.5284 33.8917C65.7501 33.94 66.9747 33.7457 68.1726 33.5073C69.7801 33.1893 71.3667 32.7916 72.9651 32.438C74.6649 32.0619 76.385 31.7348 78.1253 31.6922C80.1697 31.6426 82.4027 31.9047 84.3129 32.6274Z" fill="#6B7D1F" stroke="#6B7D1F" stroke-width="0.6" stroke-linecap="round" stroke-linejoin="round"/>
<path d="M90.8783 40.3003C88.4398 37.9302 85.4582 36.0368 82.1418 35.2876C78.8254 34.5384 75.1595 35.0248 72.3848 36.9902C74.0818 39.1513 76.4693 40.64 79.1112 41.3934C82.9798 42.5054 87.3341 42.2077 90.8783 40.3003Z" fill="#6B7D1F" stroke="#6B7D1F" stroke-width="0.6" stroke-linecap="round" stroke-linejoin="round"/>
<path d="M94.3437 34.4132C94.0711 32.5793 93.5182 30.76 92.4943 29.2139C91.4704 27.6679 89.9432 26.4113 88.1498 25.9416C86.2103 25.4335 84.1415 25.8633 82.1649 25.5334C79.4391 25.0784 77.1068 23.1871 75.5671 20.8898C74.0273 18.5924 73.1774 15.9064 72.4785 13.2309C76.5484 11.4885 81.206 11.1817 85.3737 12.6718C89.5414 14.1619 93.0891 17.3916 94.8441 21.458C96.5991 25.5243 96.4055 30.4951 94.3437 34.4132Z" fill="#6B7D1F" stroke="#6B7D1F" stroke-width="0.6" stroke-linecap="round" stroke-linejoin="round"/>
<path d="M99.6455 32.517C98.1848 30.4203 97.3237 27.9328 97.0308 25.395C96.738 22.8572 97.0015 20.2698 97.6599 17.8012C98.2561 15.5646 99.1814 13.3979 100.532 11.5108C101.883 9.62375 103.671 8.03509 105.774 7.06079C106.833 8.81719 107.817 10.6379 108.377 12.6103C108.966 14.6861 108.971 16.9017 108.574 19.0222C108.177 21.1427 107.386 23.1745 106.415 25.1028C104.864 28.1364 102.526 30.6972 99.6455 32.517Z" fill="#6B7D1F" stroke="#6B7D1F" stroke-width="0.6" stroke-linecap="round" stroke-linejoin="round"/>
<path d="M99.4316 33.824C99.8992 30.6013 101.233 27.5337 103.084 24.8554C104.251 23.1654 105.649 21.5977 107.393 20.5123C109.137 19.4269 111.258 18.8573 113.277 19.2361C114.238 19.4164 115.148 19.8015 116.041 20.1999C116.899 20.5815 117.751 20.9776 118.595 21.3881C119.299 21.7291 120.002 22.0835 120.615 22.5693C121.46 23.2395 122.096 24.1334 122.666 25.049C124.294 27.6651 125.501 30.9696 124.803 34.0784C124.803 34.0086 122.943 33.7325 122.765 33.715C122.091 33.6451 121.404 33.3704 120.78 33.1041C119.477 32.545 118.361 31.7657 117.265 30.8809C116.1 29.9401 114.953 28.9786 113.824 27.9964C113.664 27.8063 113.398 27.7423 113.169 27.8384L113.094 27.8566C110.701 28.4339 108.342 29.332 106.082 30.2868C103.761 31.2578 101.534 32.442 99.4316 33.824Z" fill="#6B7D1F" stroke="#6B7D1F" stroke-width="0.6" stroke-linecap="round" stroke-linejoin="round"/>
<path d="M118.783 45.1913C117.778 40.6903 114.471 36.7672 110.204 35.0164C109.513 34.7199 108.787 34.5119 108.044 34.3971C105.674 34.0707 103.291 35.0877 101.398 36.5498C100.29 37.406 99.2729 38.4663 98.8242 39.7928C100.152 40.5763 101.644 41.1501 103.186 41.2221C104.021 41.2606 104.869 41.1907 105.684 41.3717C106.421 41.5365 107.1 41.8989 107.647 42.4201C108.708 43.4398 109.2 44.997 110.409 45.8371C111.555 46.6346 113.087 46.5969 114.452 46.3012C115.817 46.0056 117.388 45.2612 118.783 45.1913Z" fill="#6B7D1F" stroke="#6B7D1F" stroke-width="0.6" stroke-linecap="round" stroke-linejoin="round"/>
<path d="M132.526 42.973C131.345 40.9461 130.016 38.857 127.945 37.7562C126.878 37.1894 125.681 36.9238 124.555 36.4849C123.186 35.9509 121.915 35.1569 120.493 34.7886C118.868 34.3692 117.121 34.5328 115.541 35.1003C113.962 35.6678 112.54 36.6233 111.297 37.752C113.902 39.4917 116.843 40.5701 119.914 41.1873C122.985 41.8044 126.116 42.0644 129.224 42.4607C130.257 42.5928 131.555 42.5949 132.526 42.973Z" fill="#6B7D1F" stroke="#6B7D1F" stroke-width="0.6" stroke-linecap="round" stroke-linejoin="round"/>
<path d="M63.9824 29.4928C65.7528 28.3745 67.9006 28.0621 69.9764 27.7777C72.0781 27.4904 74.1804 27.2024 76.2919 26.997C77.3654 26.8928 78.4697 26.8124 79.5069 27.1144C80.6951 27.4638 81.9133 28.2327 82.7038 29.1832C83.4943 30.1337 83.6495 31.5833 84.3155 32.6275C84.702 33.2335 85.0893 33.9827 85.5876 34.4964C86.1607 35.0863 86.8911 35.5623 87.4949 36.1284C88.7168 37.2741 89.8331 38.5274 90.8302 39.8733C92.8319 42.5674 94.3371 45.5969 95.2754 48.8195C95.546 49.752 95.7658 50.6986 95.9338 51.655" stroke="#313232" stroke-width="0.6" stroke-linecap="round" stroke-linejoin="round"/>
<path d="M97.1504 50.6248C97.4705 45.9938 97.9891 41.2795 98.8278 36.7162L99.5267 32.8987C100.226 29.0805 101.25 25.3664 102.72 21.7739" stroke="#313232" stroke-width="0.6" stroke-linecap="round" stroke-linejoin="round"/>
<path d="M99.4297 33.355C99.8959 30.8571 101.048 28.538 102.381 26.3741C103.992 23.756 105.988 21.2245 108.753 19.8818" stroke="#313232" stroke-width="0.6" stroke-linecap="round" stroke-linejoin="round"/>
<path d="M82.3711 17.344C83.5013 17.4754 84.5482 17.994 85.526 18.5769C88.145 20.1395 90.4312 22.2018 92.2546 24.6464C93.3617 26.1323 94.3052 27.7957 94.6114 29.6234C94.9846 31.8516 94.3849 34.1392 94.6065 36.3876C94.8357 38.7052 96.1707 41.0494 97.9222 42.5857" stroke="#313232" stroke-width="0.6" stroke-linecap="round" stroke-linejoin="round"/>
<path d="M112.486 36.0789C114.36 37.3418 115.991 38.9307 117.303 40.77" stroke="#313232" stroke-width="0.6" stroke-linecap="round" stroke-linejoin="round"/>
<path d="M98.2949 39.8949C98.7031 39.5049 99.1798 39.1904 99.6641 38.8975C101.132 38.0134 102.721 37.2956 104.411 37.0279C106.102 36.7602 107.906 36.9699 109.379 37.8338" stroke="#313232" stroke-width="0.6" stroke-linecap="round" stroke-linejoin="round"/>
<path d="M113.453 19.0913C117.36 22.5121 120.62 26.6078 123.077 31.1827" stroke="#313232" stroke-width="0.6" stroke-linecap="round" stroke-linejoin="round"/>
<path d="M108.264 22.957C110.353 24.0145 111.848 25.9233 113.462 27.621C114.823 29.0533 116.306 30.3648 117.894 31.5405C119.253 32.5463 120.726 33.4675 122.379 33.8218" stroke="#313232" stroke-width="0.6" stroke-linecap="round" stroke-linejoin="round"/>
<path d="M122.219 37.7087C123.074 38.8219 123.977 39.8978 124.926 40.9364" stroke="#313232" stroke-width="0.6" stroke-linecap="round" stroke-linejoin="round"/>
<path d="M74.6738 36.8603C77.5233 36.8344 80.3854 36.9225 83.1951 37.4026C86.0048 37.8828 88.8865 39.0759 91.3208 40.5576" stroke="#313232" stroke-width="0.6" stroke-linecap="round" stroke-linejoin="round"/>
<path d="M40.7812 50.596C40.0087 50.5803 39.2644 50.8864 38.7264 51.441C38.2615 51.9102 37.9926 52.5387 37.9743 53.1988C37.9575 53.7132 38.0694 54.2256 38.2336 54.7134C38.5754 55.7303 39.2575 56.7298 40.1829 57.2994C40.9273 57.7565 41.8708 57.8795 42.6718 57.493C44.4596 56.6313 44.6574 54.0844 43.8075 52.4992C43.2023 51.369 41.9917 50.6128 40.7812 50.596Z" fill="#B29784" stroke="#313232" stroke-width="0.6" stroke-linecap="round" stroke-linejoin="round"/>
<path d="M64.2019 40.4938C64.4768 40.0557 64.8904 39.7221 65.3768 39.5461C66.9067 38.9869 68.3514 40.245 69.072 41.4849C69.7451 42.6458 69.845 44.1191 68.9735 45.2088C67.9167 46.529 65.4837 46.6192 64.4654 45.185C63.6253 44.001 63.3506 41.8197 64.2019 40.4938Z" fill="#B29784" stroke="#313232" stroke-width="0.6" stroke-linecap="round" stroke-linejoin="round"/>
<path d="M47.7943 38.1931C49.257 38.0773 50.6955 37.7525 52.0661 37.2286C53.5541 36.6597 55.0533 35.7462 55.6306 34.2617C55.9982 33.3188 55.9249 32.1956 55.3643 31.3541C54.8038 30.5126 53.8875 30.0793 52.8936 30.2533C53.7239 29.5782 54.4683 28.7681 54.9205 27.7987C55.3727 26.8293 55.5146 25.6844 55.1525 24.6773C54.7239 23.5271 53.7176 22.6905 52.5085 22.4792C51.3203 22.2856 50.0832 22.7259 49.3389 23.6673C49.5752 22.0493 49.0228 20.4158 47.8531 19.2732C46.6833 18.1305 45.0374 17.6166 43.4253 17.8907C42.6502 18.0221 41.8877 18.3471 41.3404 18.9105C40.7931 19.4738 40.4542 20.1532 40.603 20.9262C39.7091 19.6681 37.9108 19.2103 36.4668 19.7478C35.0228 20.2853 33.9891 21.7048 33.7682 23.2305C33.5928 24.4418 34.0786 25.9724 35.2073 26.4456C34.2855 26.4924 33.4223 27.0152 32.861 27.7484C32.2998 28.4815 32.0223 29.4069 31.9713 30.3288C31.9014 31.5869 32.2649 32.9064 33.1266 33.8297C33.9884 34.753 35.4331 35.1507 36.631 34.7418C36.2162 36.2081 36.3316 37.7736 36.9567 39.1632C37.4041 40.148 38.1722 41.0608 39.2164 41.3439C39.8454 41.5151 40.5171 41.4417 41.1671 41.3669C41.9163 41.281 42.7557 41.144 43.1939 40.5282C44.2738 39.0234 45.9456 38.3399 47.7943 38.1931Z" fill="#313232" stroke="#313232" stroke-width="0.6" stroke-linecap="round" stroke-linejoin="round"/>
<path d="M108.847 89.543C111.935 77.9793 114.413 64.5634 115.836 52.6789C103.705 50.2115 91.29 49.4353 78.9456 50.3724C78.773 61.4413 78.824 76.2445 79.1343 87.3106C88.9095 88.7434 98.9677 89.4731 108.847 89.543Z" fill="white" stroke="#313232" stroke-width="0.6" stroke-linecap="round" stroke-linejoin="round"/>
<path d="M50.5137 66.8279C55.8554 72.7848 60.8567 79.0385 65.4937 85.5591" stroke="#313232" stroke-width="0.6" stroke-linecap="round" stroke-linejoin="round"/>
<path d="M50.7075 67.0459C49.2181 71.0745 45.5355 74.7823 43.1172 77.8037C46.9235 77.8331 50.6111 78.0889 54.4174 78.1176C52.3308 81.0549 50.4524 84.1346 48.796 87.3343C53.2914 89.7707 57.6667 92.3484 61.877 95.2503" stroke="#313232" stroke-width="0.6" stroke-linecap="round" stroke-linejoin="round"/>
<path d="M50.2168 102.275C52.1242 94.6061 57.7478 82.767 62.8604 76.0182C65.4173 72.641 68.2643 69.4937 71.3691 66.6121C74.5464 63.6668 78.4702 61.034 82.8224 60.2679C83.9931 60.0617 85.4231 60.1128 86.0794 61.1066C86.5288 61.7846 86.4407 62.7079 86.0794 63.4355C85.718 64.163 85.1184 64.741 84.5417 65.317C80.4303 69.4502 77.0049 74.2132 74.3947 79.4262C76.6516 74.65 80.1491 70.5672 84.5222 67.6038C85.2211 67.1293 85.9606 66.6771 86.7874 66.503C87.6142 66.329 88.5529 66.4765 89.1505 67.0734C89.7606 67.6814 89.9032 68.641 89.7278 69.484C89.5523 70.3269 89.1043 71.0859 88.6626 71.8247C85.9172 76.4159 83.0908 80.9959 81.1345 85.9751C83.0593 81.813 85.1288 77.7397 88.5375 74.6728C89.5901 73.725 91.0662 72.864 92.3529 73.4566C93.1623 73.8292 93.6466 74.7105 93.7654 75.594C93.8843 76.4774 93.6956 77.3713 93.474 78.2352C92.7429 81.0924 91.6638 83.8469 90.5567 86.5804C87.3645 94.4596 83.9164 102.228 80.2126 109.886C77.9705 114.524 75.3159 119.208 72.4056 123.458C69.4953 127.709 65.8951 131.597 61.3955 134.104C56.8958 136.612 51.4127 137.624 46.4944 136.093C41.4118 134.51 37.4922 130.485 34.1542 126.339C28.164 118.893 23.3069 110.602 19.7402 101.737" stroke="#313232" stroke-width="0.6" stroke-linecap="round" stroke-linejoin="round"/>
<path d="M43.7777 53.6447C45.1756 57.3602 47.2528 60.8961 50.2617 63.4842C51.2751 64.3558 52.3969 65.119 53.643 65.6005C56.4031 66.6678 59.6461 66.2296 62.149 64.6486C63.4908 63.8004 64.6238 62.66 65.4633 61.3126C66.9904 58.8573 67.4405 55.847 67.2001 52.9654C66.9597 50.0837 66.0706 47.2978 65.0796 44.5818C64.3149 42.485 63.4574 40.3561 62.0406 38.6032C60.6351 36.8629 58.9192 35.5055 56.7644 34.7703C52.754 33.4011 47.7693 34.6801 44.91 37.8057C42.0039 40.9823 41.7648 45.2758 42.5385 49.3191C42.8282 50.7935 43.2427 52.2406 43.7777 53.6447Z" fill="#B29784" stroke="#313232" stroke-width="0.6" stroke-linecap="round" stroke-linejoin="round"/>
<path d="M62.0419 38.6032C60.6356 36.8629 58.9205 35.5055 56.7657 34.7703C52.7553 33.4011 47.7705 34.6801 44.9112 37.8057C42.3951 40.5532 41.8772 44.1373 42.2854 47.6717C43.5141 47.9939 44.9371 47.5879 45.7954 46.6296C46.857 45.4415 47.0115 43.5718 46.2511 42.1733C46.8647 42.6164 47.6321 42.5787 48.3716 42.4144C50.5021 41.941 51.9204 39.9215 51.6426 37.7568C52.2625 38.7784 53.3107 39.4652 54.4949 39.6257C55.7023 39.7845 56.9181 39.4007 57.8155 38.5773C58.095 39.9381 59.1567 41.1074 60.4924 41.489C61.5441 41.7761 62.6679 41.6125 63.5942 41.0375C63.1626 40.1744 62.6424 39.3586 62.0419 38.6032Z" fill="#313232" stroke="#313232" stroke-width="0.6" stroke-linecap="round" stroke-linejoin="round"/>
<path d="M49.4727 47.6431C49.7791 47.9568 50.1622 48.1849 50.5839 48.305C50.8579 48.3825 51.155 48.4119 51.4227 48.3259C51.7987 48.2071 52.0803 47.88 52.2383 47.5194C52.3963 47.1587 52.448 46.7603 52.4983 46.3696" stroke="#313232" stroke-width="0.6" stroke-linecap="round" stroke-linejoin="round"/>
<path d="M57.3164 44.1575C57.4646 44.3868 57.6973 44.5482 57.9357 44.6824C58.2348 44.8509 58.5801 44.99 58.9141 44.9131C59.2482 44.8362 59.5173 44.535 59.6452 44.2065C59.7731 43.878 59.7906 43.518 59.8067 43.1658" stroke="#313232" stroke-width="0.6" stroke-linecap="round" stroke-linejoin="round"/>
<path d="M54.4336 44.5198C54.9228 45.3075 55.6917 45.905 56.5464 46.2671C57.4012 46.6291 58.3413 46.7626 59.2722 46.7375C58.2756 47.4042 57.3397 48.1444 56.3829 48.8664" stroke="#313232" stroke-width="0.6" stroke-linecap="round" stroke-linejoin="round"/>
<path d="M60.7733 50.8604C60.2437 50.4002 59.5963 50.0966 58.9037 49.984C58.2081 49.8746 57.4957 49.9974 56.8768 50.3334C56.4709 50.5732 56.1074 50.8786 55.8012 51.2371C55.3525 51.7362 54.9625 52.3009 54.7598 52.9411C54.3076 52.0959 53.604 51.412 52.7462 50.9841C52.4972 50.8565 52.2323 50.7625 51.9585 50.7046C51.5655 50.6353 51.1634 50.6353 50.7703 50.7046C49.6521 50.8786 48.554 51.4196 47.8887 52.3365C48.422 53.3849 48.9056 54.5109 49.4899 55.5341C49.9868 56.4036 50.5075 57.271 51.2002 57.9943C51.8928 58.7177 52.7783 59.2936 53.768 59.4488C55.0806 59.655 56.4302 59.0868 57.4066 58.1858C58.383 57.2849 59.033 56.0849 59.5404 54.8569C60.057 53.6114 60.5217 52.1884 60.7733 50.8604Z" fill="#685649" stroke="#685649" stroke-width="0.6" stroke-linecap="round" stroke-linejoin="round"/>
<path d="M47.8516 52.338C48.3079 52.6086 48.7788 52.8541 49.262 53.0732C50.3013 53.5625 51.3553 54.0384 52.468 54.3313C53.5806 54.6241 54.7611 54.7206 55.8794 54.4564C56.8649 54.2236 57.7714 53.7148 58.5542 53.0718C59.337 52.4288 60.001 51.6537 60.6055 50.8416" stroke="#313232" stroke-width="0.6" stroke-linecap="round" stroke-linejoin="round"/>
<path d="M39.832 52.7964C40.8035 53.5883 41.72 54.4453 42.5753 55.3614" stroke="#313232" stroke-width="0.6" stroke-linecap="round" stroke-linejoin="round"/>
<path d="M89.555 67.6889C92.7697 67.6889 95.3757 65.0829 95.3757 61.8683C95.3757 58.6536 92.7697 56.0476 89.555 56.0476C86.3404 56.0476 83.7344 58.6536 83.7344 61.8683C83.7344 65.0829 86.3404 67.6889 89.555 67.6889Z" fill="white" stroke="#313232" stroke-width="0.6" stroke-linecap="round" stroke-linejoin="round"/>
<path d="M88.1349 63.3955C83.9846 67.0712 82.2213 70.9341 83.4346 76.5318C84.2866 80.4653 86.0856 84.127 88.0314 87.6496C89.6159 90.5152 91.3164 93.3437 92.4696 96.4113C93.6228 99.4789 94.2036 102.857 93.4628 106.049C92.7219 109.241 90.486 112.199 87.3688 113.207C84.2761 114.209 80.7892 113.168 78.2199 111.176C75.6507 109.184 73.8649 106.354 72.3797 103.464C70.8945 100.575 69.6476 97.5464 67.8828 94.8157" stroke="#313232" stroke-width="0.6" stroke-linecap="round" stroke-linejoin="round"/>
<path d="M89.5551 64.9722C91.2693 64.9722 92.659 63.5826 92.659 61.8683C92.659 60.1541 91.2693 58.7644 89.5551 58.7644C87.8408 58.7644 86.4512 60.1541 86.4512 61.8683C86.4512 63.5826 87.8408 64.9722 89.5551 64.9722Z" fill="white" stroke="#313232" stroke-width="0.6" stroke-linecap="round" stroke-linejoin="round"/>
<path d="M66.5621 44.8578C66.4453 43.6162 66.4014 42.3688 66.4307 41.1221" stroke="#313232" stroke-width="0.6" stroke-linecap="round" stroke-linejoin="round"/>
<path d="M36.9902 80.1216C41.3865 86.6471 46.1224 92.9372 51.1784 98.966" stroke="#313232" stroke-width="0.6" stroke-linecap="round" stroke-linejoin="round"/>
<path d="M40.9279 53.8104C39.9907 54.8763 39.9033 56.4838 40.3436 57.8285C40.784 59.1733 41.6716 60.3223 42.5425 61.4399C44.3883 63.7659 46.0098 66.2429 47.9137 68.499C49.8996 70.8516 51.9964 73.1038 54.204 75.2555C56.0212 77.028 58.0516 78.8298 60.5551 79.519C63.9226 80.4464 67.4913 79.2058 70.0389 76.9392C73.0617 74.2491 74.0269 70.8069 73.8221 66.8572C73.7599 65.6474 73.6125 64.4438 73.4377 63.2459C73.0317 60.4502 71.0956 49.4491 70.3429 46.8163C69.8774 45.1878 68.5599 42.5151 66.4492 43.1819" stroke="#313232" stroke-width="0.6" stroke-linecap="round" stroke-linejoin="round"/>
<path d="M19.7422 101.739C23.3088 110.605 28.1659 118.895 34.1561 126.341C37.4942 130.487 41.4137 134.512 46.4963 136.095C51.4147 137.627 56.8977 136.615 61.3974 134.107C65.8971 131.599 69.4979 127.712 72.4076 123.461C75.3172 119.21 77.9724 114.527 80.2146 109.889C80.4429 109.417 80.67 108.945 80.896 108.473C76.9897 107.087 73.4685 104.588 70.2591 101.903C69.2806 101.087 68.3251 100.25 67.4214 99.3551C62.8274 94.8079 59.7465 88.7692 58.703 82.3943C55.6271 87.7327 51.372 97.9999 49.6946 103.185" fill="white"/>
<path d="M19.7422 101.739C23.3088 110.605 28.1659 118.895 34.1561 126.341C37.4942 130.487 41.4137 134.512 46.4963 136.095C51.4147 137.627 56.8977 136.615 61.3974 134.107C65.8971 131.599 69.4979 127.712 72.4076 123.461C75.3172 119.21 77.9724 114.527 80.2146 109.889C80.4429 109.417 80.67 108.945 80.896 108.473C76.9897 107.087 73.4685 104.588 70.2591 101.903C69.2806 101.087 68.3251 100.25 67.4214 99.3551C62.8274 94.8079 59.7465 88.7692 58.703 82.3943C55.6271 87.7327 51.372 97.9999 49.6946 103.185" stroke="#313232" stroke-width="0.6" stroke-linecap="round" stroke-linejoin="round"/>
<path d="M70.2584 101.903C73.4679 104.585 76.9891 107.085 80.8954 108.473C84.3388 101.278 87.5592 93.9816 90.5566 86.5837C91.6637 83.8502 92.7429 81.0957 93.4739 78.2385C93.6948 77.3747 93.8849 76.4807 93.7654 75.5973C93.6459 74.7139 93.1622 73.8325 92.3529 73.46C91.0661 72.8673 89.59 73.7284 88.5374 74.6761C85.1288 77.743 83.0593 81.8163 81.1344 85.9784C83.0914 80.9993 85.9172 76.4192 88.6625 71.828C89.105 71.0892 89.5523 70.3309 89.7277 69.4873C89.9031 68.6437 89.7605 67.6848 89.1504 67.0767C88.5528 66.4798 87.6127 66.3317 86.7873 66.5064C85.9619 66.6811 85.2217 67.1354 84.5221 67.6072C80.9029 70.0579 77.875 73.284 75.6583 77.0511C78.0783 72.7569 81.0666 68.809 84.5424 65.314C85.1162 64.7381 85.7138 64.1601 86.08 63.4325C86.4462 62.7049 86.5315 61.7817 86.08 61.1037C85.4237 60.1126 83.9937 60.0616 82.823 60.265C78.4708 61.0338 74.547 63.6639 71.3697 66.6091C68.265 69.4907 65.4179 72.6381 62.861 76.0153C61.4848 77.8325 60.0709 80.018 58.7031 82.3922C59.7466 88.7671 62.8268 94.8058 67.4215 99.3531C68.3245 100.25 69.2827 101.088 70.2584 101.903Z" fill="#B29784" stroke="#313232" stroke-width="0.6" stroke-linecap="round" stroke-linejoin="round"/>
<path d="M63.8126 18.6141C61.0819 18.2745 58.5567 16.5684 57.221 14.1634C56.8415 13.4784 56.548 12.6956 56.671 11.9268C56.794 11.158 57.4545 10.4248 58.2366 10.4591C58.5546 10.4738 58.8551 10.6065 59.1305 10.7645C60.4983 11.5487 61.388 12.9389 62.2239 14.2752C62.0234 13.289 61.8535 12.1728 61.9346 11.1692C61.9821 10.5821 62.0849 9.98101 62.398 9.48268C62.7111 8.98434 63.2772 8.60832 63.8657 8.66843C64.5688 8.74042 65.0707 9.39741 65.3502 10.0544C65.9241 11.4061 65.9094 12.9493 65.59 14.3821C65.2706 15.8149 64.4193 17.2785 63.8126 18.6141Z" fill="#F8B83E" stroke="#F8B83E" stroke-width="0.6" stroke-linecap="round" stroke-linejoin="round"/>
<path d="M98.7051 101.294C99.3572 106.124 102.228 110.295 106.382 112.843C106.982 113.211 107.609 113.542 108.278 113.761C109.547 114.177 110.922 114.172 112.24 113.96C113.827 113.705 115.463 113.086 116.396 111.777C117.264 110.56 117.37 108.903 116.898 107.484C116.426 106.066 115.435 104.865 114.287 103.907" stroke="#313232" stroke-width="0.6" stroke-linecap="round" stroke-linejoin="round"/>
<path d="M114.286 76.9043C111.5 74.1134 107.867 72.016 103.936 71.7036C103.055 71.6337 102.057 71.7036 101.464 72.3556C101.018 72.8484 100.914 73.5781 101.035 74.2323C101.156 74.8865 101.533 75.5358 101.845 76.1194C100.727 75.5798 98.8806 75.1821 97.7861 75.953C97.004 76.5038 96.7244 77.5689 96.8544 78.5167C96.9844 79.4644 97.5778 80.5967 98.0426 81.434C97.1835 80.8907 96.0943 80.8673 95.2127 81.3732C95.0564 81.4629 94.9132 81.5737 94.787 81.7024C94.309 82.2014 94.2104 82.9541 94.2593 83.6426C94.3928 85.5423 95.567 87.4566 96.6769 88.9509C97.8798 90.5703 99.2895 92.0479 100.281 93.8043C100.631 94.4207 100.928 95.0868 100.971 95.7934C101.031 96.7963 100.571 97.7504 100.112 98.6429C99.6529 99.5354 99.1867 100.413 98.708 101.289C99.3601 106.119 102.231 110.29 106.385 112.838C106.985 113.206 107.612 113.537 108.281 113.756C108.536 113.839 108.795 113.906 109.058 113.957C110.888 110.664 112.714 107.331 114.294 103.906H114.29H114.295C116.093 100.007 117.573 95.9905 118.376 91.7781C119.207 87.4175 118.541 82.3083 115.839 78.6718C115.365 78.0455 114.846 77.4547 114.286 76.9043Z" fill="#B29784" stroke="#313232" stroke-width="0.6" stroke-linecap="round" stroke-linejoin="round"/>
<path d="M98.7046 101.294C97.4025 103.81 96.2045 106.179 95.082 108.779" stroke="#313232" stroke-width="0.6" stroke-linecap="round" stroke-linejoin="round"/>
<path d="M104.41 128.333C109.196 123.205 112.807 117.336 116.609 111.442" stroke="#313232" stroke-width="0.6" stroke-linecap="round" stroke-linejoin="round"/>
<path d="M98.0957 81.4075C101.443 83.4345 104.341 86.1243 106.611 89.3116" stroke="#313232" stroke-width="0.6" stroke-linecap="round" stroke-linejoin="round"/>
<path d="M101.641 76.0056C105.061 77.8582 108.151 80.2635 110.786 83.1242" stroke="#313232" stroke-width="0.6" stroke-linecap="round" stroke-linejoin="round"/>
<mask id="mask0" mask-type="alpha" maskUnits="userSpaceOnUse" x="0" y="0" width="144" height="137">
<path d="M144 0H0V137H144V0Z" fill="white"/>
</mask>
<g mask="url(#mask0)">
</g>
</g>
<defs>
<clipPath id="clip0">
<rect width="144" height="137" fill="white"/>
</clipPath>
</defs>
</svg>
