<svg width="144" height="144" viewBox="0 0 144 144" fill="none" xmlns="http://www.w3.org/2000/svg">
<mask id="mask0" mask-type="alpha" maskUnits="userSpaceOnUse" x="0" y="0" width="144" height="144">
<rect width="144" height="144" fill="white"/>
</mask>
<g mask="url(#mask0)">
<path d="M46.0994 129.116C45.8441 130.687 46.3179 131.909 47.3243 133.133C48.3307 134.357 49.7064 135.214 51.1421 135.861C53.559 136.951 56.1818 137.495 58.7796 138.014C67.2968 139.718 75.9698 141.262 84.6166 140.477C90.1465 139.974 95.2646 138.132 100.472 136.303C102.493 135.593 104.57 134.851 106.176 133.417C107.781 131.984 110.062 129.724 108.391 127.135" stroke="#313232" stroke-width="0.5" stroke-linecap="round" stroke-linejoin="round"/>
<path d="M79.3118 150.837C83.8402 159.633 86.5737 169.21 89.833 178.539C100.06 178.18 110.287 177.718 120.516 177.154C117.134 161.637 110.272 145.621 106.252 130.247C105.145 126.01 103.739 120.233 99.5561 118.667C96.0442 117.353 92.2464 116.983 88.4926 116.813C75.6808 116.235 62.3814 118.119 50.2623 122.215C48.2553 141.159 47.1945 160.169 47.0801 179.246C57.1242 179.295 67.1589 179.187 77.1842 178.922L79.3118 150.837Z" fill="#A4CCC6" stroke="#A4CCC6" stroke-width="0.5" stroke-linecap="round" stroke-linejoin="round"/>
<path fill-rule="evenodd" clip-rule="evenodd" d="M61.7664 119.838C58.1225 120.287 54.5433 121.028 51.0937 122.199C50.7799 125.232 50.4908 128.267 50.2266 131.305C53.6737 130.21 57.1951 129.359 60.7639 128.761C61.0511 125.781 61.3852 122.807 61.7664 119.838Z" stroke="#313232" stroke-width="0.5" stroke-linecap="round" stroke-linejoin="round"/>
<path fill-rule="evenodd" clip-rule="evenodd" d="M97.7091 129.436C100.781 129.982 103.838 130.605 106.878 131.305C106.682 130.636 106.49 129.967 106.304 129.3C105.508 126.432 104.567 122.865 102.683 120.348C102.055 120.297 101.418 120.252 100.784 120.21C98.9688 120.081 97.1533 119.958 95.3379 119.838C96.2753 123.027 96.9791 126.214 97.7091 129.436Z" stroke="#313232" stroke-width="0.5" stroke-linecap="round" stroke-linejoin="round"/>
<path fill-rule="evenodd" clip-rule="evenodd" d="M91.4525 119.586C87.5277 119.33 83.602 119.106 79.6725 118.949C75.0086 118.766 70.2703 118.702 65.594 119.014C65.2626 121.781 65.021 124.591 64.9141 127.378C69.1265 126.913 73.3674 126.723 77.607 126.812C82.8443 126.926 88.0672 127.383 93.2392 128.178C92.6159 125.319 92.0204 122.455 91.4525 119.586Z" stroke="#313232" stroke-width="0.5" stroke-linecap="round" stroke-linejoin="round"/>
<path d="M74.4248 127.135L74.2871 118.796" stroke="#313232" stroke-width="0.5" stroke-linecap="round" stroke-linejoin="round"/>
<path d="M83.9158 127.135L83.6797 118.796" stroke="#313232" stroke-width="0.5" stroke-linecap="round" stroke-linejoin="round"/>
<path d="M74.3555 124.085L78.5518 123.931" stroke="#313232" stroke-width="0.5" stroke-linecap="round" stroke-linejoin="round"/>
<path d="M76.7482 40.6128C76.9297 36.9123 76.1593 33.1744 75.101 29.6265C73.7833 25.2132 71.5214 21.0052 71.2374 16.4029C70.883 10.6685 73.8688 5.21321 78.975 2.64581C81.8088 1.22012 85.0749 0.738495 88.2175 1.13186C92.273 1.63939 96.1518 3.76162 98.6027 7.09367C101.701 11.3065 101.222 16.1122 100.285 20.9985C100.095 22.004 99.8976 23.0133 99.7551 24.0254C99.129 28.4781 99.5537 33.1831 101.632 37.1608" stroke="#313232" stroke-width="0.5" stroke-linecap="round" stroke-linejoin="round"/>
<path d="M102.776 86.4803C108.716 77.6438 112.867 67.7848 115.006 57.4331C116.029 52.4641 116.583 47.3751 116.195 42.3213C115.313 30.8765 108.261 17.9828 95.2907 16.6655C94.32 16.5702 93.2278 16.6874 92.5705 17.3908C92.068 17.9294 91.926 18.7301 92.0984 19.4392C92.2708 20.1484 92.9427 20.7117 93.4942 21.2026C92.7106 21.012 91.8114 20.9929 90.9562 21.0472C89.9701 21.0976 89.1466 21.7963 88.9609 22.7401C88.7836 23.6208 89.245 24.4187 89.7847 25.0878C90.2823 25.7045 91.1424 26.1944 91.782 26.6701C90.9063 26.5166 89.8807 26.7997 89.388 27.5365C88.8953 28.2733 88.8982 29.2418 89.1735 30.0777C89.8366 32.067 91.829 33.3233 93.7773 34.2097C95.1949 34.8552 96.6617 35.3928 98.1646 35.8178C99.9278 39.1777 100.377 43.4003 100.048 47.1606C99.7191 50.9209 98.5986 54.5764 97.2674 58.1222C94.9056 64.4088 91.8679 70.4349 88.2047 76.1002L87.9941 75.7275" fill="#D3A798"/>
<path d="M102.776 86.4803C108.716 77.6438 112.867 67.7848 115.006 57.4331C116.029 52.4641 116.583 47.3751 116.195 42.3213C115.313 30.8765 108.261 17.9828 95.2907 16.6655C94.32 16.5702 93.2278 16.6874 92.5705 17.3908C92.068 17.9294 91.926 18.7301 92.0984 19.4392C92.2708 20.1484 92.9427 20.7117 93.4942 21.2026C92.7106 21.012 91.8114 20.9929 90.9562 21.0472C89.9701 21.0976 89.1466 21.7963 88.9609 22.7401C88.7836 23.6208 89.245 24.4187 89.7847 25.0878C90.2823 25.7045 91.1424 26.1944 91.782 26.6701C90.9063 26.5166 89.8807 26.7997 89.388 27.5365C88.8953 28.2733 88.8982 29.2418 89.1735 30.0777C89.8366 32.067 91.829 33.3233 93.7773 34.2097C95.1949 34.8552 96.6617 35.3928 98.1646 35.8178C99.9278 39.1777 100.377 43.4003 100.048 47.1606C99.7191 50.9209 98.5986 54.5764 97.2674 58.1222C94.9056 64.4088 91.8679 70.4349 88.2047 76.1002L87.9941 75.7275" stroke="#313232" stroke-width="0.5" stroke-linecap="round" stroke-linejoin="round"/>
<path d="M37.6596 89.6077C33.1105 84.7639 28.8286 79.4909 26.2703 73.3112C23.712 67.1315 23.038 59.889 25.6999 53.7529C28.2715 47.8153 33.565 43.6012 38.9335 40.1089C44.4687 36.5078 50.2977 33.3985 56.3559 30.8155C59.8326 26.0008 63.1714 21.188 68.2224 18.15C69.8662 17.1609 71.7676 16.3762 73.6414 16.7181C75.5152 17.0601 77.2226 18.9153 76.8214 20.817C78.1942 20.7056 79.6117 21.8826 80.0681 23.2069C80.5244 24.5312 80.0053 26.1374 78.8664 26.926C80.1279 26.77 81.2345 27.4995 81.5797 28.6416C81.9248 29.7838 81.4846 31.0442 80.7535 31.98C80.0224 32.9158 79.0423 33.6007 78.1115 34.3292C76.0189 35.9687 74.1471 37.8816 72.5443 40.0188C71.0469 42.0163 69.7873 44.199 68.1949 46.1142C65.7725 49.0205 62.6485 51.2128 59.5626 53.3702L46.771 62.3157C50.474 67.6827 53.6284 72.9062 57.3323 78.2732" fill="#D3A798"/>
<path d="M37.6596 89.6077C33.1105 84.7639 28.8286 79.4909 26.2703 73.3112C23.712 67.1315 23.038 59.889 25.6999 53.7529C28.2715 47.8153 33.565 43.6012 38.9335 40.1089C44.4687 36.5078 50.2977 33.3985 56.3559 30.8155C59.8326 26.0008 63.1714 21.188 68.2224 18.15C69.8662 17.1609 71.7676 16.3762 73.6414 16.7181C75.5152 17.0601 77.2226 18.9153 76.8214 20.817C78.1942 20.7056 79.6117 21.8826 80.0681 23.2069C80.5244 24.5312 80.0053 26.1374 78.8664 26.926C80.1279 26.77 81.2345 27.4995 81.5797 28.6416C81.9248 29.7838 81.4846 31.0442 80.7535 31.98C80.0224 32.9158 79.0423 33.6007 78.1115 34.3292C76.0189 35.9687 74.1471 37.8816 72.5443 40.0188C71.0469 42.0163 69.7873 44.199 68.1949 46.1142C65.7725 49.0205 62.6485 51.2128 59.5626 53.3702L46.771 62.3157C50.474 67.6827 53.6284 72.9062 57.3323 78.2732" stroke="#313232" stroke-width="0.5" stroke-linecap="round" stroke-linejoin="round"/>
<path d="M65.9629 29.1459C67.3908 27.1361 68.9978 25.2379 70.9211 23.7298C72.8444 22.2217 75.1041 21.1126 77.5027 20.8064" fill="#D3A798"/>
<path d="M65.9629 29.1459C67.3908 27.1361 68.9978 25.2379 70.9211 23.7298C72.8444 22.2217 75.1041 21.1126 77.5027 20.8064" stroke="#313232" stroke-width="0.5" stroke-linecap="round" stroke-linejoin="round"/>
<path d="M71.209 33.3157C72.1976 31.726 73.2932 30.1437 74.7742 29.086C76.2333 28.0525 77.8783 27.3625 79.6016 27.061" fill="#D3A798"/>
<path d="M71.209 33.3157C72.1976 31.726 73.2932 30.1437 74.7742 29.086C76.2333 28.0525 77.8783 27.3625 79.6016 27.061" stroke="#313232" stroke-width="0.5" stroke-linecap="round" stroke-linejoin="round"/>
<path d="M48.128 61.4617C46.7585 62.2019 45.3598 62.8969 43.9316 63.5466Z" fill="#D3A798"/>
<path d="M48.128 61.4617C46.7585 62.2019 45.3598 62.8969 43.9316 63.5466" stroke="#313232" stroke-width="0.5" stroke-linecap="round" stroke-linejoin="round"/>
<path d="M48.0922 103.638C47.0851 112.521 46.1755 121.38 45.1704 130.263C46.566 125.934 51.8077 125.059 55.7473 124.436C68.6577 122.395 82.0522 121.751 94.9704 124.067C95.8905 124.231 96.8073 124.411 97.7208 124.608C101.198 125.358 105.088 126.107 107.926 128.341C104.295 119.675 100.413 109.195 96.5872 100.61C100.079 97.2411 103.509 93.8092 107 90.4412C101.796 84.5725 96.3748 79.3907 90.6871 73.9709L80.3507 82.5017C78.3143 84.1819 76.2505 85.8802 73.8536 87.014C71.4568 88.1478 68.6519 88.6731 66.1109 87.8985C63.5027 87.1019 61.4974 85.0645 59.7998 82.965C57.8159 80.514 55.944 78.2616 54.2172 75.6301C47.0858 80.0209 40.4702 85.1699 34.4902 90.9837C38.8466 95.5295 43.1368 99.7218 48.0922 103.638Z" fill="white" stroke="#313232" stroke-width="0.5" stroke-linecap="round" stroke-linejoin="round"/>
<path d="M59.668 105.244C59.7086 102.984 59.7904 101.33 59.9129 99.075C60.2767 98.9455 60.67 98.9464 60.9996 99.1948C61.3321 99.4484 61.5834 99.8656 61.7035 100.363C61.7562 100.572 61.776 100.793 61.7616 101.013C61.7161 101.581 61.3781 102.047 60.9919 102.244C60.6056 102.441 60.1725 102.409 59.7652 102.306" stroke="#313232" stroke-width="0.5" stroke-linecap="round" stroke-linejoin="round"/>
<path d="M64.9141 105.244C64.9201 104.877 64.9575 104.511 65.0261 104.15C65.277 102.626 65.5279 101.099 65.9144 99.6005C65.9805 99.3454 66.0992 99.0444 66.3759 98.9953C66.4916 98.9786 66.6099 98.9984 66.712 99.0517C67.1074 99.2378 67.2934 99.6601 67.4435 100.048C68.0447 101.598 68.6003 103.162 69.1104 104.741" stroke="#313232" stroke-width="0.5" stroke-linecap="round" stroke-linejoin="round"/>
<path d="M69.1094 100.032C70.8398 99.4264 72.5939 99.0777 74.3548 98.9895" stroke="#313232" stroke-width="0.5" stroke-linecap="round" stroke-linejoin="round"/>
<path d="M82.748 97.947L83.7971 104.202L83.7929 104.057" stroke="#313232" stroke-width="0.5" stroke-linecap="round" stroke-linejoin="round"/>
<path d="M84.8457 97.947L86.9439 104.202" stroke="#313232" stroke-width="0.5" stroke-linecap="round" stroke-linejoin="round"/>
<path d="M79.1356 98.4711C78.5984 98.1943 78.0159 97.9091 77.3918 97.9512C76.8473 97.987 76.3553 98.2795 76.0372 98.6605C75.7341 99.0534 75.5418 99.5017 75.4755 99.9697C75.3495 100.677 75.3911 101.399 75.5979 102.092C75.7395 102.63 76.0338 103.13 76.4545 103.546C76.8877 103.948 77.5068 104.223 78.1444 104.2C78.7819 104.178 79.4122 103.824 79.6006 103.3" stroke="#313232" stroke-width="0.5" stroke-linecap="round" stroke-linejoin="round"/>
<path d="M72.2578 98.9895C72.493 100.869 72.8764 102.345 73.3069 104.202" stroke="#313232" stroke-width="0.5" stroke-linecap="round" stroke-linejoin="round"/>
<path d="M65.9629 103.236C66.6617 103.178 67.3611 103.127 68.061 103.083" stroke="#313232" stroke-width="0.5" stroke-linecap="round" stroke-linejoin="round"/>
<path d="M81.6992 101.214C83.0718 100.941 84.492 100.867 85.8955 100.997" stroke="#313232" stroke-width="0.5" stroke-linecap="round" stroke-linejoin="round"/>
<path d="M58.3344 78.7348C57.7321 78.3488 57.0071 78.0976 56.2743 78.1468C55.5414 78.1959 54.8243 78.6019 54.5506 79.2318C54.2936 79.8235 54.4574 80.5062 54.7733 81.0743C55.4169 82.224 56.6765 83.036 58.045 83.289C58.9171 83.4501 59.9668 83.3309 60.4603 82.6445C60.7418 82.2531 60.782 81.7342 60.6339 81.2855C60.3219 80.3278 59.2006 79.2937 58.3344 78.7348Z" fill="#D3A798" stroke="#313232" stroke-width="0.5" stroke-linecap="round" stroke-linejoin="round"/>
<path d="M71.3803 73.1926C71.6196 72.2653 72.1533 71.2756 73.2045 70.9457C74.1324 70.6553 75.2377 71.0099 75.8386 71.6788C76.4395 72.3477 76.5748 73.2549 76.3561 74.0723C76.1374 74.8896 75.5983 75.6218 74.9638 76.2641C74.2471 76.988 73.2045 77.4462 72.2702 76.7617C71.0739 75.8848 71.0739 74.3994 71.3803 73.1926Z" fill="#D3A798" stroke="#313232" stroke-width="0.5" stroke-linecap="round" stroke-linejoin="round"/>
<path d="M57.7237 74.7611C57.1652 72.0377 58.1232 69.0847 60.7427 67.5127C62.2717 66.6077 64.1772 66.4234 65.8776 67.0161C68.0546 67.7553 69.4581 69.9129 70.6109 71.6348C71.7243 73.2736 72.7199 74.9777 73.5911 76.736C74.4248 78.4486 75.1546 80.1087 75.3697 82.1127C75.9038 87.0734 70.2073 90.1528 65.8827 87.7104C63.1083 86.144 61.5152 83.4871 60.2687 80.9397C59.329 79.0182 58.165 76.915 57.7237 74.7611Z" fill="#D3A798" stroke="#313232" stroke-width="0.5" stroke-linecap="round" stroke-linejoin="round"/>
<path d="M65.9629 75.0134C67.5418 76.6581 69.2434 78.0508 71.2083 79.1386C69.7031 79.1836 68.1514 79.2308 66.653 79.0835" stroke="#313232" stroke-width="0.5" stroke-linecap="round" stroke-linejoin="round"/>
<path d="M63.8652 78.1406C65.5429 79.2241 68.1263 79.4953 70.1597 78.8018" stroke="#313232" stroke-width="0.5" stroke-linecap="round" stroke-linejoin="round"/>
<path d="M57.0295 75.0135C56.4345 73.8532 55.8028 72.694 55.3119 71.4903C54.9792 70.6738 54.6687 69.8421 54.5173 68.9755C54.3659 68.1088 54.3832 67.2026 54.6822 66.353C55.12 65.1342 56.1288 64.1392 57.286 63.4208C58.1144 62.9044 59.0653 62.5013 60.048 62.5042C61.0307 62.507 61.9768 62.9318 62.7386 63.5133C63.5005 64.0948 64.0945 64.835 64.6876 65.5581L67.0128 68.4138" fill="#F7B83E"/>
<path d="M57.0295 75.0135C56.4345 73.8532 55.8028 72.694 55.3119 71.4903C54.9792 70.6738 54.6687 69.8421 54.5173 68.9755C54.3659 68.1088 54.3832 67.2026 54.6822 66.353C55.12 65.1342 56.1288 64.1392 57.286 63.4208C58.1144 62.9044 59.0653 62.5013 60.048 62.5042C61.0307 62.507 61.9768 62.9318 62.7386 63.5133C63.5005 64.0948 64.0945 64.835 64.6876 65.5581L67.0128 68.4138" stroke="#F7B83E" stroke-width="0.5" stroke-linecap="round" stroke-linejoin="round"/>
<path d="M57.5703 72.9284C59.1617 69.256 61.1989 65.7997 63.2591 62.3725C63.7752 61.5128 64.295 60.654 64.8852 59.8437C65.3993 59.1391 65.976 58.4645 66.6961 57.976C67.4162 57.4875 68.2981 57.2006 69.1588 57.3179C70.0195 57.4352 70.8359 58.0216 71.1045 58.8532C71.3847 59.7255 71.0487 60.6657 70.6799 61.5031C69.9027 63.2682 68.9652 64.9573 67.8793 66.5489" fill="#F7B83E"/>
<path d="M57.5703 72.9284C59.1617 69.256 61.1989 65.7997 63.2591 62.3725C63.7752 61.5128 64.295 60.654 64.8852 59.8437C65.3993 59.1391 65.976 58.4645 66.6961 57.976C67.4162 57.4875 68.2981 57.2006 69.1588 57.3179C70.0195 57.4352 70.8359 58.0216 71.1045 58.8532C71.3847 59.7255 71.0487 60.6657 70.6799 61.5031C69.9027 63.2682 68.9652 64.9573 67.8793 66.5489" stroke="#F7B83E" stroke-width="0.5" stroke-linecap="round" stroke-linejoin="round"/>
<path d="M57.5703 75.0134C59.168 71.2099 61.2131 67.6302 63.2814 64.0807C63.7995 63.1903 64.3214 62.3009 64.9139 61.4617" stroke="#313232" stroke-width="0.5" stroke-linecap="round" stroke-linejoin="round"/>
<path d="M59.3389 78.0041C59.5217 78.084 59.7196 78.1298 59.9214 78.1389C60.2965 78.1592 60.6603 78.0162 60.9057 77.7519C61.2904 77.3104 61.181 76.6435 60.8679 76.1539C60.4971 75.5766 59.8976 75.1628 59.315 74.7684C60.2793 74.627 60.9981 73.9112 61.363 73.0706C61.726 72.209 61.5867 71.2345 60.9941 70.4908C61.699 71.2075 62.8204 71.4089 63.8335 71.1734C64.8465 70.9378 65.7015 70.2441 66.1906 69.387C66.3586 69.7638 66.7493 70.0335 67.1609 70.173C67.5786 70.3059 68.0262 70.3361 68.4603 70.2608C68.85 70.2026 69.2427 70.076 69.523 69.8183C69.8034 69.5606 69.9276 69.2373 70.0201 68.902C70.1961 68.2822 70.2408 67.5987 69.9415 67.0214C69.6423 66.4441 68.9205 66.0257 68.2515 66.1901C68.4682 65.7522 68.4443 65.1842 68.3002 64.7214C68.1599 64.251 67.8023 63.8627 67.3239 63.661C66.7095 63.4208 65.9639 63.5751 65.4529 63.9723C64.9419 64.3695 64.6576 64.9782 64.5821 65.5943C64.0243 65.0234 63.0849 64.896 62.2955 65.1251C61.5061 65.3541 60.8679 65.9564 60.5498 66.6713C60.2316 67.3862 60.2088 68.1917 60.3897 68.9445C59.8921 68.8995 59.3947 69.0316 58.9979 69.314C58.6262 69.5971 58.329 69.9554 58.129 70.3614C57.5388 71.4875 57.4112 72.775 57.7701 73.9823C58.1878 75.3563 58.7121 76.7004 59.3389 78.0041Z" fill="#313232" stroke="#313232" stroke-width="0.5" stroke-linecap="round" stroke-linejoin="round"/>
<path d="M57.5703 80.2256C58.3009 80.5079 59.0034 80.8569 59.6685 81.268" stroke="#313232" stroke-width="0.5" stroke-linecap="round" stroke-linejoin="round"/>
<path d="M72.2578 76.0558C72.4649 75.319 72.8192 74.6147 73.3069 73.9709" stroke="#313232" stroke-width="0.5" stroke-linecap="round" stroke-linejoin="round"/>
<path d="M63.8652 76.6016C63.973 76.7783 64.1038 76.9243 64.2506 77.0319C64.4022 77.1281 64.5935 77.1281 64.7197 76.977C64.7916 76.8789 64.842 76.754 64.8651 76.617C64.9029 76.4349 64.9191 76.2454 64.9131 76.0559" stroke="#313232" stroke-width="0.5" stroke-linecap="round" stroke-linejoin="round"/>
<path d="M69.1094 74.5092C69.2213 74.6925 69.3644 74.8385 69.527 74.9353C69.6195 74.9983 69.724 75.024 69.8275 75.0094C69.963 74.9724 70.0735 74.8435 70.1179 74.6708C70.1624 74.5102 70.1609 74.1387 70.1562 73.9709" stroke="#313232" stroke-width="0.5" stroke-linecap="round" stroke-linejoin="round"/>
<path d="M102.013 37.4454C106.406 39.4028 110.206 42.6842 112.288 46.9312C113.47 49.3319 114.159 51.9334 114.599 54.5601C115.051 57.2823 115.325 60.0972 115.259 62.8514C115.195 65.2862 114.707 67.6924 113.818 69.9665C113.138 71.7163 112.235 73.3749 111.132 74.903C110.001 76.4674 108.632 77.6706 107.258 79.0071C105.862 80.3668 103.79 81.1191 101.937 81.738C99.9253 82.4001 97.8497 82.858 95.7427 83.1045C90.1684 83.7805 84.2979 83.1363 79.4028 80.4411C75.1308 78.0897 72.164 74.1256 70.7407 69.5667C70.0142 67.2423 69.4856 64.914 69.2907 62.581C68.9699 58.7414 68.9758 54.5166 70.1383 50.8374C71.0753 47.8679 72.5774 45.0559 74.6229 42.6755C75.618 41.5167 76.5915 40.4042 77.8712 39.5467C79.2898 38.592 80.8186 37.8054 82.4257 37.203C83.4861 36.8105 84.5711 36.4851 85.674 36.2286C88.5738 35.542 91.58 35.2292 94.5517 35.4947C97.1322 35.7324 99.654 36.3917 102.013 37.4454Z" fill="white" stroke="#313232" stroke-width="0.5" stroke-linecap="round" stroke-linejoin="round"/>
<path d="M70.1602 60.4192C70.2228 58.417 70.5754 56.4357 71.2061 54.5407C71.3029 54.2495 71.406 53.9598 71.5154 53.6718C71.8561 52.7716 72.255 51.8959 72.7094 51.0506C77.4051 42.3392 87.5521 37.953 96.9342 40.117C102.487 41.3965 107.392 44.9508 110.507 49.8428C112.464 52.9301 113.733 56.4253 114.221 60.0774" stroke="#313232" stroke-width="0.5" stroke-linecap="round" stroke-linejoin="round"/>
<path d="M74.3555 13.5093C74.6067 10.9187 76.1655 8.59534 78.5518 7.25464" stroke="#313232" stroke-width="0.5" stroke-linecap="round" stroke-linejoin="round"/>
<path d="M92.1895 27.061C94.7301 27.3964 97.2662 28.0092 99.533 29.1459" stroke="#313232" stroke-width="0.5" stroke-linecap="round" stroke-linejoin="round"/>
<path d="M93.2383 21.8489C96.768 22.6424 99.9478 23.4885 102.68 26.0186" stroke="#313232" stroke-width="0.5" stroke-linecap="round" stroke-linejoin="round"/>
<path fill-rule="evenodd" clip-rule="evenodd" d="M86.5624 47.7038C90.7273 46.3075 95.4306 46.7029 99.4049 48.5662C100.766 49.2037 102.055 50.0134 103.129 51.0566C105.941 53.7871 107.012 57.9036 106.863 61.7987C106.752 64.7109 105.993 67.6683 104.241 70.0128C103.468 71.0269 102.552 71.9266 101.522 72.6849C98.6751 74.8093 95.2205 75.9886 91.6535 76.0537C88.0755 76.1093 83.5466 75.0491 81.094 72.297C78.5851 69.4808 76.8452 66.2579 76.5126 62.4635C76.3209 60.4079 76.5937 58.3358 77.3111 56.3971C78.85 52.3268 82.3975 49.1001 86.5624 47.7038Z" stroke="#313232" stroke-width="0.5" stroke-linecap="round" stroke-linejoin="round"/>
<path fill-rule="evenodd" clip-rule="evenodd" d="M101.632 60.2857C96.6852 62.9406 92.0243 66.0254 87.803 69.8013C85.588 66.5869 83.7332 63.2348 81.6992 59.8928C82.7885 59.1687 84.0053 58.2871 85.1482 57.6597C86.4895 59.6404 87.7044 61.8336 88.8962 63.913C92.1536 61.1125 95.6256 58.4626 99.2749 56.2495C100.019 57.6228 100.887 58.9124 101.632 60.2857Z" stroke="#313232" stroke-width="0.5" stroke-linecap="round" stroke-linejoin="round"/>
<path d="M81.6992 58.8982C82.889 58.144 84.1302 57.4715 85.414 56.8854C86.4538 58.7823 87.6749 60.7098 88.8862 62.5041C91.8701 59.7935 95.4309 57.1365 98.9859 55.207C99.8766 56.6755 100.74 58.1659 101.632 59.6344" stroke="#313232" stroke-width="0.5" stroke-linecap="round" stroke-linejoin="round"/>
<path d="M78.5527 63.5466C79.9218 68.3749 83.3961 72.6631 89.0056 72.9143C93.0935 73.0977 97.5673 71.5069 100.583 68.8929" stroke="#313232" stroke-width="0.5" stroke-linecap="round" stroke-linejoin="round"/>
<path d="M80.6504 54.2492C82.1611 51.734 85.1659 50.2221 88.2188 49.4928C92.6359 48.437 97.6609 48.8582 101.289 51.3788C103.725 53.0865 105.349 55.5751 105.828 58.3344" stroke="#313232" stroke-width="0.5" stroke-linecap="round" stroke-linejoin="round"/>
</g>
</svg>
