<svg width="144" height="138" viewBox="0 0 144 138" fill="none" xmlns="http://www.w3.org/2000/svg">
<path d="M111.576 73.551L122.25 30.9912" stroke="#313232" stroke-width="0.5" stroke-linecap="round" stroke-linejoin="round"/>
<path d="M21.5664 55.7668C30.1784 66.5583 39.9805 77.0741 49.1587 87.3929" stroke="#313232" stroke-width="0.5" stroke-linecap="round" stroke-linejoin="round"/>
<path d="M70.8525 107.239C66.1836 107.433 61.4406 107.443 56.9223 106.242C52.404 105.041 48.0848 102.491 45.6216 98.5221C43.1583 94.5534 42.9082 89.057 45.7437 85.3408C46.76 84.0084 48.2152 82.9082 49.8868 82.7555C51.5584 82.6027 53.3798 83.6407 53.7251 85.2809C54.9234 85.1056 56.1748 85.0869 56.956 86.1601C57.7798 87.2895 58.1393 89.09 57.3102 90.3077C58.0914 90.2516 58.7205 90.6575 59.3271 91.1525C59.9338 91.6476 60.3756 92.3261 60.6685 93.0518C61.4563 94.9893 61.1927 97.3208 59.9944 99.0343C60.4805 99.1841 60.959 99.1909 61.4676 99.1774L65.5583 99.071C69.2123 98.9767 72.1122 97.4803 75.3207 95.7293C76.8829 94.8755 78.4205 93.8524 80.1835 93.6C81.3653 93.4308 82.3127 93.9356 83.4421 94.0142C84.5977 94.0943 85.9436 93.7551 87.1044 93.6442L95.464 92.8451C99.5555 92.4534 102.369 90.984 105.789 88.7934C104.815 88.2961 104.167 87.5367 103.559 86.6267C102.95 85.7167 102.682 84.5372 103.03 83.4984C103.378 82.4596 104.416 81.6395 105.508 81.7159C104.684 80.7341 104.433 79.2819 104.791 78.0536C104.893 77.6736 105.068 77.3174 105.307 77.0051C105.603 76.6525 105.992 76.3907 106.431 76.2502C106.649 76.1763 106.875 76.1261 107.105 76.1004C107.359 76.0712 107.595 76.0353 107.854 76.0734C107.704 75.5552 107.679 74.9905 107.704 74.4535C107.725 73.9727 107.812 73.4799 108.03 73.0492C108.147 72.8129 108.307 72.6007 108.502 72.4239C109.637 71.4083 111.41 71.7543 112.836 72.2891C116.704 73.7383 120.44 76.4599 121.561 80.4353C122.015 82.0447 122.01 83.7613 121.711 85.4059C120.994 89.3573 118.617 92.8953 115.536 95.4679C112.455 98.0405 108.705 99.7181 104.845 100.825C102.756 101.424 100.626 101.865 98.4845 102.232C97.3978 102.417 96.3073 102.584 95.2161 102.744C94.2605 102.884 93.2899 103.072 92.3223 102.955C91.6707 102.88 91.0273 102.73 90.375 102.695" fill="#6B7D1F"/>
<path d="M70.8525 107.239C66.1836 107.433 61.4406 107.443 56.9223 106.242C52.404 105.041 48.0848 102.491 45.6216 98.5221C43.1583 94.5534 42.9082 89.057 45.7437 85.3408C46.76 84.0084 48.2152 82.9082 49.8868 82.7555C51.5584 82.6027 53.3798 83.6407 53.7251 85.2809C54.9234 85.1056 56.1748 85.0869 56.956 86.1601C57.7798 87.2895 58.1393 89.09 57.3102 90.3077C58.0914 90.2516 58.7205 90.6575 59.3271 91.1525C59.9338 91.6476 60.3756 92.3261 60.6685 93.0518C61.4563 94.9893 61.1927 97.3208 59.9944 99.0343C60.4805 99.1841 60.959 99.1909 61.4676 99.1774L65.5583 99.071C69.2123 98.9767 72.1122 97.4803 75.3207 95.7293C76.8829 94.8755 78.4205 93.8524 80.1835 93.6C81.3653 93.4308 82.3127 93.9356 83.4421 94.0142C84.5977 94.0943 85.9436 93.7551 87.1044 93.6442L95.464 92.8451C99.5555 92.4534 102.369 90.984 105.789 88.7934C104.815 88.2961 104.167 87.5367 103.559 86.6267C102.95 85.7167 102.682 84.5372 103.03 83.4984C103.378 82.4596 104.416 81.6395 105.508 81.7159C104.684 80.7341 104.433 79.2819 104.791 78.0536C104.893 77.6736 105.068 77.3174 105.307 77.0051C105.603 76.6525 105.992 76.3907 106.431 76.2502C106.649 76.1763 106.875 76.1261 107.105 76.1004C107.359 76.0712 107.595 76.0353 107.854 76.0734C107.704 75.5552 107.679 74.9905 107.704 74.4535C107.725 73.9727 107.812 73.4799 108.03 73.0492C108.147 72.8129 108.307 72.6007 108.502 72.4239C109.637 71.4083 111.41 71.7543 112.836 72.2891C116.704 73.7383 120.44 76.4599 121.561 80.4353C122.015 82.0447 122.01 83.7613 121.711 85.4059C120.994 89.3573 118.617 92.8953 115.536 95.4679C112.455 98.0405 108.705 99.7181 104.845 100.825C102.756 101.424 100.626 101.865 98.4845 102.232C97.3978 102.417 96.3073 102.584 95.2161 102.744C94.2605 102.884 93.2899 103.072 92.3223 102.955C91.6707 102.88 91.0273 102.73 90.375 102.695" stroke="#6B7D1F" stroke-width="0.5" stroke-linecap="round" stroke-linejoin="round"/>
<path d="M88.7109 82.0171C90.6986 81.892 92.8855 81.8254 94.4538 83.0529C96.7148 84.8249 96.6257 88.4362 98.671 90.4561C100.266 92.0289 102.715 92.2356 104.817 93.0122C108.861 94.5101 111.827 98.5439 112.047 102.847C109.755 101.982 108.166 99.7197 105.819 99.0157C104.231 98.5394 102.509 98.8465 100.882 98.5304C97.5611 97.8856 95.33 94.8868 93.0375 92.3996C91.7712 91.0263 90.3984 89.7551 88.9319 88.598" fill="#6B7D1F"/>
<path d="M88.7109 82.0171C90.6986 81.892 92.8855 81.8254 94.4538 83.0529C96.7148 84.8249 96.6257 88.4362 98.671 90.4561C100.266 92.0289 102.715 92.2356 104.817 93.0122C108.861 94.5101 111.827 98.5439 112.047 102.847C109.755 101.982 108.166 99.7197 105.819 99.0157C104.231 98.5394 102.509 98.8465 100.882 98.5304C97.5611 97.8856 95.33 94.8868 93.0375 92.3996C91.7712 91.0263 90.3984 89.7551 88.9319 88.598" stroke="#6B7D1F" stroke-width="0.5" stroke-linecap="round" stroke-linejoin="round"/>
<path d="M88.7109 82.0171C90.6986 81.892 92.8855 81.8254 94.4538 83.0529C96.7148 84.8249 96.6257 88.4362 98.671 90.4561C100.266 92.0289 102.715 92.2356 104.817 93.0122C108.861 94.5101 111.827 98.5439 112.047 102.847C109.755 101.982 108.166 99.7197 105.819 99.0157C104.231 98.5394 102.509 98.8465 100.882 98.5304C97.5611 97.8856 95.33 94.8868 93.0375 92.3996C91.7712 91.0263 90.3984 89.7551 88.9319 88.598" stroke="#313232" stroke-width="0.5" stroke-linecap="round" stroke-linejoin="round"/>
<path d="M107.529 76.0322C108.956 76.0482 110.353 76.4467 111.574 77.1863" stroke="#313232" stroke-width="0.5" stroke-linecap="round" stroke-linejoin="round"/>
<path d="M105.109 81.6628C106.714 81.8487 108.272 82.3205 109.71 83.0559" stroke="#313232" stroke-width="0.5" stroke-linecap="round" stroke-linejoin="round"/>
<path d="M52.8535 96.1442C52.9123 94.7956 53.3341 93.4879 54.0743 92.3591C54.4383 91.8049 54.8831 91.2948 55.4321 90.9234C55.9811 90.5519 56.6409 90.3242 57.3044 90.3602" stroke="#313232" stroke-width="0.5" stroke-linecap="round" stroke-linejoin="round"/>
<path d="M48.418 92.2309C48.5248 89.0462 50.6413 86.2805 53.6875 85.3452" stroke="#313232" stroke-width="0.5" stroke-linecap="round" stroke-linejoin="round"/>
<path d="M60.5467 97.9985C60.1306 98.9373 59.6062 99.8244 58.9844 100.642" stroke="#313232" stroke-width="0.5" stroke-linecap="round" stroke-linejoin="round"/>
<path d="M101.203 133.833C101.584 123.348 101.697 111.101 102.551 100.642C90.1554 100.91 77.8498 102.814 65.9531 106.304C68.9848 116.539 71.8697 127.084 75.2115 137.222C83.4805 136.127 92.9306 134.927 101.203 133.833Z" fill="white" stroke="#313232" stroke-width="0.5" stroke-linecap="round" stroke-linejoin="round"/>
<path d="M103.271 77.0906C104.085 75.4961 104.934 73.6897 106.322 72.5034C104.594 71.3987 101.024 69.5923 99.0164 70.8153C101.26 69.4468 103.33 67.8123 105.182 65.9472C105.856 65.2732 106.53 64.4883 106.612 63.5371C106.663 62.9267 106.814 62.1508 106.612 61.5734C104.771 61.9441 102.874 62.3388 101.328 63.4046C99.0808 64.9526 97.9267 67.669 95.8768 69.471C94.7377 70.4715 93.3589 71.1418 91.9824 71.747C90.5796 72.3626 89.2113 73.1385 87.7516 73.6103L86.1744 72.1334C86.1354 72.103 86.1054 72.0626 86.0875 72.0166C86.0773 71.9666 86.0809 71.9148 86.098 71.8668C86.4556 70.5519 86.9913 69.292 87.6902 68.1221C88.2751 67.1335 89.2502 66.264 90.0666 65.4694C90.9368 64.6208 91.8446 63.8127 92.7313 62.9814C94.4681 61.3532 96.1764 59.6015 97.1935 57.4161C97.5889 56.5653 97.8727 55.6501 97.9057 54.7124C97.9379 53.7995 97.7319 52.8932 97.7282 51.9795C97.7237 51.0232 97.8495 49.9364 98.2727 49.0782C97.0998 48.8715 95.8761 48.8363 94.7317 49.1665C93.5873 49.4968 92.5261 50.224 91.9606 51.2733C91.7202 51.7227 91.5734 52.2132 91.3128 52.6476C90.7593 53.5695 89.7183 53.9328 88.875 54.6001C89.1259 52.3533 89.0188 49.9919 88.326 47.8387C87.8699 47.9323 87.4431 48.1308 87.0244 48.3345C86.1676 48.7509 85.3263 49.1975 84.5005 49.6743C84.0871 49.9132 83.6767 50.1611 83.3217 50.4817C82.6274 51.1123 82.3226 51.7099 81.9159 52.5555C81.668 49.8518 83.3981 47.28 83.255 44.5696C83.1502 42.5879 81.8964 40.7418 80.1567 39.7869C78.5584 40.0595 77.253 41.2675 76.412 42.6553C75.5709 44.0431 75.1163 45.6188 74.5614 47.1459C74.4498 47.4515 74.3292 47.7638 74.112 48.0042C73.7061 48.4498 73.0635 48.5577 72.51 48.8056C71.2982 49.3523 70.7568 50.6779 70.914 51.9945C70.0902 49.7784 67.1776 48.9291 66.2811 46.7422C65.9306 45.8877 65.8887 44.8377 65.1847 44.2408C64.4552 43.6229 63.3685 43.7914 62.4338 43.9876C61.4819 44.1914 60.4941 44.2872 59.5422 44.4909C59.2022 45.7806 59.5662 47.1751 60.2432 48.3247C60.9202 49.4744 61.9051 50.4877 62.8645 51.4111C61.7411 50.6779 60.3495 50.4674 59.0059 50.4502C57.6624 50.433 56.4596 50.6749 55.1175 50.6C54.5146 52.1226 54.1326 53.7673 54.3026 55.3932C54.4726 57.0191 55.2508 58.6338 56.5974 59.5648C57.2474 60.0141 58.0016 60.292 58.6524 60.7384C59.4179 61.2626 60.2297 62.1089 60.5757 62.9694C59.4201 62.2475 57.9544 62.3658 56.5929 62.4602C55.2313 62.5545 53.7312 62.5545 52.6894 61.6768C52.3202 61.3652 52.0326 60.9593 51.6319 60.6904C50.7721 60.1137 49.6847 60.0089 48.6744 60.2178C47.5293 61.8588 47.5787 64.2389 48.792 65.8349C49.6233 66.9261 50.9212 67.6578 51.5121 68.895C51.9884 69.8926 51.9487 71.1201 52.6168 72.0009C53.2496 72.8344 54.3461 73.1362 55.3624 73.3864C56.3787 73.6365 57.5515 74.0088 58.5618 74.2582C57.4908 74.3518 56.7472 75.44 55.6971 75.6699C54.9587 75.8317 54.2068 75.5441 53.484 75.3246C52.7613 75.1052 51.9248 74.9644 51.2904 75.3756C50.9002 75.628 50.6561 76.0496 50.4261 76.4518C49.9992 77.2007 49.5798 78.065 49.5476 78.9293C50.8957 80.3096 52.8587 80.8765 54.7625 81.1761C56.6663 81.4756 58.624 81.5633 60.4372 82.2156C61.6355 82.6462 62.7327 83.3105 63.8216 83.9704L67.1731 86.0022C66.2077 86.5205 64.7465 87.1256 63.7812 87.6446C62.7723 88.1869 61.7171 88.768 61.1172 89.7469C62.7357 91.2305 64.6544 92.6063 66.8039 93.0527C68.11 93.3238 69.2005 93.2564 70.5268 93.3717C73.8656 93.6623 76.9917 91.9113 79.9859 90.4067C83.1584 88.813 85.9317 87.5652 89.1858 86.1453C91.5188 85.1282 93.6794 83.7337 95.8843 82.4635C96.4198 82.1549 96.959 81.8441 97.5395 81.6307C98.3011 81.3513 99.122 81.2435 99.8657 80.9184C101.465 80.2197 102.478 78.6424 103.271 77.0906Z" fill="#6B7D1F" stroke="#6B7D1F" stroke-width="0.5" stroke-linecap="round" stroke-linejoin="round"/>
<path d="M74.3993 87.8857C71.772 87.0057 68.5801 88.6025 67.7098 91.2327C67.1503 92.9238 67.4522 94.8658 66.6059 96.4326C66.2014 97.1815 65.5633 97.7807 65.1492 98.5296C64.3321 99.9983 64.5021 101.849 65.1432 103.403C65.7843 104.957 66.8433 106.295 67.8124 107.672C68.7815 109.049 69.6922 110.525 69.9633 112.184C71.8664 111.563 73.9529 110.791 74.8749 109.015C75.7039 107.417 75.3527 105.405 76.178 103.805C76.6379 102.915 77.4183 102.241 78.0721 101.483C79.6286 99.6598 80.4685 97.3321 80.435 94.9347C80.7008 96.2416 81.324 96.9748 82.3283 97.8556C83.3326 98.7363 84.4545 99.489 85.324 100.499C86.8054 102.214 87.4211 104.488 88.0015 106.68C90.259 105.296 91.8342 103.03 92.3453 100.432C92.6539 98.8112 92.5295 97.1366 92.7834 95.5047C92.8928 94.8014 93.0725 94.1101 93.1751 93.4076C93.7623 89.3694 91.499 85.0772 87.836 83.2805" fill="#6B7D1F"/>
<path d="M74.3993 87.8857C71.772 87.0057 68.5801 88.6025 67.7098 91.2327C67.1503 92.9238 67.4522 94.8658 66.6059 96.4326C66.2014 97.1815 65.5633 97.7807 65.1492 98.5296C64.3321 99.9983 64.5021 101.849 65.1432 103.403C65.7843 104.957 66.8433 106.295 67.8124 107.672C68.7815 109.049 69.6922 110.525 69.9633 112.184C71.8664 111.563 73.9529 110.791 74.8749 109.015C75.7039 107.417 75.3527 105.405 76.178 103.805C76.6379 102.915 77.4183 102.241 78.0721 101.483C79.6286 99.6598 80.4685 97.3321 80.435 94.9347C80.7008 96.2416 81.324 96.9748 82.3283 97.8556C83.3326 98.7363 84.4545 99.489 85.324 100.499C86.8054 102.214 87.4211 104.488 88.0015 106.68C90.259 105.296 91.8342 103.03 92.3453 100.432C92.6539 98.8112 92.5295 97.1366 92.7834 95.5047C92.8928 94.8014 93.0725 94.1101 93.1751 93.4076C93.7623 89.3694 91.499 85.0772 87.836 83.2805" stroke="#6B7D1F" stroke-width="0.5" stroke-linecap="round" stroke-linejoin="round"/>
<path d="M74.3993 87.8857C71.772 87.0057 68.5801 88.6025 67.7098 91.2327C67.1503 92.9238 67.4522 94.8658 66.6059 96.4326C66.2014 97.1815 65.5633 97.7807 65.1492 98.5296C64.3321 99.9983 64.5021 101.849 65.1432 103.403C65.7843 104.957 66.8433 106.295 67.8124 107.672C68.7815 109.049 69.6922 110.525 69.9633 112.184C71.8664 111.563 73.9529 110.791 74.8749 109.015C75.7039 107.417 75.3527 105.405 76.178 103.805C76.6379 102.915 77.4183 102.241 78.0721 101.483C79.6286 99.6598 80.4685 97.3321 80.435 94.9347C80.7008 96.2416 81.324 96.9748 82.3283 97.8556C83.3326 98.7363 84.4545 99.489 85.324 100.499C86.8054 102.214 87.4211 104.488 88.0015 106.68C90.259 105.296 91.8342 103.03 92.3453 100.432C92.6539 98.8112 92.5295 97.1366 92.7834 95.5047C92.8928 94.8014 93.0725 94.1101 93.1751 93.4076C93.7623 89.3694 91.499 85.0772 87.836 83.2805" stroke="#313232" stroke-width="0.5" stroke-linecap="round" stroke-linejoin="round"/>
<path d="M76.4609 82.1787C77.7229 83.6062 79.8177 84.1911 81.672 83.7515C83.5264 83.3119 85.0962 81.9129 85.8751 80.1738" stroke="#313232" stroke-width="0.5" stroke-linecap="round" stroke-linejoin="round"/>
<path d="M74.8262 78.7217C75.2554 79.4795 76.1195 79.8798 76.9752 79.7172C77.8308 79.5546 78.4878 78.8651 78.609 78.0027" stroke="#313232" stroke-width="0.5" stroke-linecap="round" stroke-linejoin="round"/>
<path d="M82.4961 77.2509C82.8674 77.9321 83.6152 78.3197 84.3859 78.2305C85.1566 78.1412 85.796 77.593 86.0019 76.845" stroke="#313232" stroke-width="0.5" stroke-linecap="round" stroke-linejoin="round"/>
<path d="M74.6352 84.6884C73.4429 84.0833 72.3689 83.2078 71.6514 82.0799C70.9339 80.952 70.5932 79.5605 70.8433 78.2476C71.2432 76.1431 73.0085 74.592 73.9357 72.6613C75.2328 69.9591 74.6756 66.4758 72.6018 64.3129C74.3992 64.2837 76.3135 64.4522 77.9297 65.309C78.7371 65.7374 79.334 66.3373 79.9256 67.0195C80.5248 67.7145 80.8244 68.5923 81.5119 69.2544C82.4106 70.1194 83.5595 70.6624 84.6574 71.2585C85.7554 71.8547 86.8481 72.5542 87.5101 73.6102C89.0979 76.1416 90.0123 78.628 88.9151 81.4043" stroke="#313232" stroke-width="0.5" stroke-linecap="round" stroke-linejoin="round"/>
<path d="M57.6699 74.4528C58.54 73.6948 59.7033 73.3652 60.8417 73.5541C62.0894 73.7691 63.1634 74.5892 64.4096 74.8213C65.7472 75.07 67.1005 74.6146 68.4389 74.372C69.7772 74.1293 71.3365 74.1705 72.2689 75.1613" stroke="#313232" stroke-width="0.5" stroke-linecap="round" stroke-linejoin="round"/>
<path d="M57.123 79.1038C58.4219 80.0673 59.6154 81.1653 60.6835 82.3796" stroke="#313232" stroke-width="0.5" stroke-linecap="round" stroke-linejoin="round"/>
<path d="M62.0508 78.825C63.7763 80.2906 65.3382 81.9386 66.7092 83.7402" stroke="#313232" stroke-width="0.5" stroke-linecap="round" stroke-linejoin="round"/>
<path d="M59.4414 61.324C60.6232 62.4092 60.9602 64.1475 61.9788 65.3877C63.3269 67.0316 65.5924 67.5154 67.643 68.0839C70.2006 68.7939 72.7073 69.7368 74.2434 71.9034" stroke="#313232" stroke-width="0.5" stroke-linecap="round" stroke-linejoin="round"/>
<path d="M57.3223 68.2141C62.9782 68.8416 68.4367 70.6616 73.3375 73.554" stroke="#313232" stroke-width="0.5" stroke-linecap="round" stroke-linejoin="round"/>
<path d="M63.9531 57.917C65.9004 59.3475 67.7754 60.8668 69.5784 62.475" stroke="#313232" stroke-width="0.5" stroke-linecap="round" stroke-linejoin="round"/>
<path d="M62.0352 50.9788C63.3637 51.3946 64.5455 52.1817 65.4413 53.2473C66.009 53.9258 66.4734 54.7272 67.226 55.1945C68.1203 55.7487 69.2422 55.7188 70.2652 55.9689C71.4692 56.2622 72.5455 56.9384 73.3321 57.8959C74.9049 59.8192 75.0704 62.5573 76.4409 64.6281" stroke="#313232" stroke-width="0.5" stroke-linecap="round" stroke-linejoin="round"/>
<path d="M79.1309 66.1395C79.9113 65.634 80.4198 64.7772 80.7463 63.8995C82.2704 59.8073 80.4924 55.0463 81.9933 50.9429" stroke="#313232" stroke-width="0.5" stroke-linecap="round" stroke-linejoin="round"/>
<path d="M70.9338 50.7864C70.5076 51.7832 70.6709 52.9283 70.9338 53.9806C71.1616 54.9001 71.4577 55.8014 71.8198 56.6768" stroke="#313232" stroke-width="0.5" stroke-linecap="round" stroke-linejoin="round"/>
<path d="M76.8902 60.498C76.7538 57.998 77.1768 55.499 78.1282 53.1831" stroke="#313232" stroke-width="0.5" stroke-linecap="round" stroke-linejoin="round"/>
<path d="M88.8675 53.3193C88.8091 55.5384 87.819 57.6175 86.7488 59.5647C85.0869 62.5972 83.1344 65.5712 80.3828 67.6577" stroke="#313232" stroke-width="0.5" stroke-linecap="round" stroke-linejoin="round"/>
<path d="M89.8457 62.7184C91.5532 61.0017 93.0713 59.1065 94.3738 57.0654" stroke="#313232" stroke-width="0.5" stroke-linecap="round" stroke-linejoin="round"/>
<path d="M80.4335 94.925C79.8089 92.6243 79.4599 90.9377 79.4531 88.7029" stroke="#313232" stroke-width="0.5" stroke-linecap="round" stroke-linejoin="round"/>
<path d="M94.9199 83.4796C95.8796 82.6144 97.0276 81.9847 98.2729 81.6402C98.6848 81.5294 99.105 81.4523 99.5027 81.2867C100.258 80.9714 102.015 79.4069 102.409 78.5906" stroke="#313232" stroke-width="0.5" stroke-linecap="round" stroke-linejoin="round"/>
<path d="M95.0646 83.6363C94.265 82.8191 93.283 82.2031 92.1992 81.8389" stroke="#313232" stroke-width="0.5" stroke-linecap="round" stroke-linejoin="round"/>
<path d="M65.6289 86.4561C66.1621 86.2703 66.6677 86.0127 67.1852 85.788C69.3736 84.8384 72.2652 84.4137 74.6349 84.6886" stroke="#313232" stroke-width="0.5" stroke-linecap="round" stroke-linejoin="round"/>
<path d="M71.0978 101.344C70.5459 100.146 70.632 98.7362 70.9937 97.4652C71.3555 96.1943 71.9734 95.0155 72.4781 93.7954C73.2016 92.0459 73.8262 90.041 75.4739 89.1108" stroke="#313232" stroke-width="0.5" stroke-linecap="round" stroke-linejoin="round"/>
<path d="M91.1738 76.573C92.3705 75.5922 93.4849 74.5151 94.5058 73.3525C95.1327 72.6395 95.7326 71.8861 96.504 71.3304C97.8102 70.3972 99.4638 70.1321 101.051 69.8984" stroke="#313232" stroke-width="0.5" stroke-linecap="round" stroke-linejoin="round"/>
<path d="M48.1113 49.4578C58.3283 67.0945 66.9845 85.6052 76.18 103.798" stroke="#313232" stroke-width="0.5" stroke-linecap="round" stroke-linejoin="round"/>
<path d="M93.9492 101.09L94.3724 37.8508" stroke="#313232" stroke-width="0.5" stroke-linecap="round" stroke-linejoin="round"/>
<path d="M21.5662 55.7669C20.3043 48.7374 22.8611 41.5229 26.5661 35.4168C33.3298 24.2704 44.0163 15.6876 56.1079 10.812C67.84 6.08246 81.0977 4.78605 93.2911 8.15401C105.485 11.522 116.457 19.7453 122.249 30.9913L21.5662 55.7669Z" fill="#F7B83E" stroke="#F7B83E" stroke-width="0.5" stroke-linecap="round" stroke-linejoin="round"/>
<path d="M46.8612 122.036C41.4344 121.919 36.215 118.476 33.9735 113.532C33.1586 111.735 32.7452 109.543 33.7436 107.84C34.7419 106.137 37.5946 105.605 38.6491 107.275C39.6631 108.881 38.1623 111.146 36.2959 111.503C34.4296 111.861 32.5662 110.895 31.0534 109.745C25.718 105.683 22.6878 98.7684 23.3214 92.0894" stroke="#313232" stroke-width="0.5" stroke-linecap="round" stroke-linejoin="round"/>
<path d="M122.449 30.8887C119.634 25.4274 115.44 20.4313 110.309 16.4409C105.262 12.5333 99.5023 9.64512 93.3517 7.9375C81.5986 4.69086 68.3425 5.63827 56.024 10.6037C43.5055 15.6508 32.9755 24.4238 26.3743 35.3006C24.3447 38.6454 22.8686 41.9714 21.9878 45.1866C20.9663 48.914 20.7498 52.4865 21.346 55.8043C21.3567 55.8658 21.3925 55.92 21.4448 55.954C21.4811 55.9778 21.5235 55.9906 21.5669 55.9907C21.5851 55.9907 21.6032 55.9884 21.6208 55.984L122.303 31.2092C122.369 31.1928 122.425 31.1466 122.454 31.084C122.482 31.0213 122.48 30.9491 122.449 30.8879V30.8887Z" fill="#E1EDF5"/>
<path d="M35.4174 54.2089C33.939 48.517 34.3157 42.545 36.1364 36.9834C37.9031 31.5843 40.7011 26.1133 44.6518 21.9814C47.5277 18.9729 50.805 16.2086 54.2299 13.7701C56.0094 12.5029 57.8406 11.3106 59.7047 10.1752C61.3643 9.16338 63.0644 7.9134 64.7622 7.03564" stroke="#313232" stroke-width="0.5" stroke-linecap="round" stroke-linejoin="round"/>
<path d="M48.1862 49.9236C47.2194 42.1706 48.3555 34.2012 51.182 26.9185C54.0085 19.6359 58.5066 13.04 64.0457 7.52783" stroke="#313232" stroke-width="0.5" stroke-linecap="round" stroke-linejoin="round"/>
<path d="M63.5969 47.0192C60.7562 33.9128 61.4661 20.2957 63.4583 7.03125" stroke="#313232" stroke-width="0.5" stroke-linecap="round" stroke-linejoin="round"/>
<path d="M62.7656 7.64771C69.4731 15.7422 73.9188 25.5151 77.8612 35.2602C79.1314 38.3993 80.3157 41.571 81.4141 44.7755" stroke="#313232" stroke-width="0.5" stroke-linecap="round" stroke-linejoin="round"/>
<path d="M62.4336 8.05884C69.0003 8.7224 74.6974 12.852 79.4592 17.4205C86.3187 24.0067 90.2438 29.5129 94.3727 38.0799" stroke="#313232" stroke-width="0.5" stroke-linecap="round" stroke-linejoin="round"/>
<path d="M62.4336 8.54641C64.4557 7.8836 67.3766 7.79747 69.4983 7.91805C78.1935 8.4131 86.1854 11.3819 93.1699 16.5847C100.155 21.7876 105.67 28.8673 109.341 36.7671" stroke="#313232" stroke-width="0.5" stroke-linecap="round" stroke-linejoin="round"/>
<path fill-rule="evenodd" clip-rule="evenodd" d="M122.449 30.8887C119.634 25.4274 115.44 20.4313 110.309 16.4409C105.262 12.5333 99.5023 9.64512 93.3517 7.9375C81.5986 4.69086 68.3425 5.63827 56.024 10.6037C43.5055 15.6508 32.9755 24.4238 26.3743 35.3006C24.3447 38.6454 22.8686 41.9714 21.9878 45.1866C20.9663 48.914 20.7498 52.4865 21.346 55.8043C21.3567 55.8658 21.3925 55.92 21.4448 55.954C21.4811 55.9778 21.5235 55.9906 21.5669 55.9907C21.5851 55.9907 21.6032 55.9884 21.6208 55.984L122.303 31.2092C122.369 31.1928 122.425 31.1466 122.454 31.084C122.482 31.0213 122.48 30.9491 122.449 30.8879V30.8887Z" stroke="#E1EDF5" stroke-width="0.5" stroke-linecap="round" stroke-linejoin="round"/>
<path d="M85.1777 88.8691C87.3145 91.4873 88.4774 94.7653 88.4686 98.1447" stroke="#313232" stroke-width="0.5" stroke-linecap="round" stroke-linejoin="round"/>
<path d="M103.623 87.282C105.112 89.1108 107.177 90.3803 109.481 90.8829" stroke="#313232" stroke-width="0.5" stroke-linecap="round" stroke-linejoin="round"/>
<mask id="mask0" mask-type="alpha" maskUnits="userSpaceOnUse" x="0" y="0" width="144" height="138">
<path d="M144 0H0V138H144V0Z" fill="white"/>
</mask>
<g mask="url(#mask0)">
</g>
</svg>
